<svg width="25" height="28" viewBox="0 0 25 28" fill="none">
<g filter="url(#filter0_d)">
<path d="M12.4303 4.85851C13.3759 7.67466 11.8812 9.59882 11.1699 10.8338C13.3235 10.7596 15.2344 9.53751 17.5313 9.69137C18.5077 9.75678 20.1104 10.182 20.962 10.7108C22.5861 11.7195 23.6515 13.056 23.7759 15.2382C24.0785 20.549 18.9792 21.135 15.7177 21.0815C12.4469 21.028 11.9729 20.4247 8.25378 20.6183C6.34629 20.7176 3.7195 21.2912 2.36426 22.5237C1.22159 23.5629 1.46993 18.7953 1.6369 17.8998C1.94119 16.2679 1.80477 13.5524 1.78213 11.8708C1.73842 8.62474 0.862368 3.099 5.84223 1.32119C8.68784 0.305278 11.4848 2.04236 12.4303 4.85851Z" fill="white"/>
<path d="M12.4303 4.85851C13.3759 7.67466 11.8812 9.59882 11.1699 10.8338C13.3235 10.7596 15.2344 9.53751 17.5313 9.69137C18.5077 9.75678 20.1104 10.182 20.962 10.7108C22.5861 11.7195 23.6515 13.056 23.7759 15.2382C24.0785 20.549 18.9792 21.135 15.7177 21.0815C12.4469 21.028 11.9729 20.4247 8.25378 20.6183C6.34629 20.7176 3.7195 21.2912 2.36426 22.5237C1.22159 23.5629 1.46993 18.7953 1.6369 17.8998C1.94119 16.2679 1.80477 13.5524 1.78213 11.8708C1.73842 8.62474 0.862368 3.099 5.84223 1.32119C8.68784 0.305278 11.4848 2.04236 12.4303 4.85851Z" stroke="#2B2B2B" stroke-width="2" stroke-linecap="round" stroke-linejoin="round"/>
</g>
<defs>
<filter id="filter0_d" x="0.491821" y="0.0246582" width="24.2969" height="27.6482" filterUnits="userSpaceOnUse" color-interpolation-filters="sRGB">
<feFlood flood-opacity="0" result="BackgroundImageFix"/>
<feColorMatrix in="SourceAlpha" type="matrix" values="0 0 0 0 0 0 0 0 0 0 0 0 0 0 0 0 0 0 127 0" result="hardAlpha"/>
<feOffset dy="4"/>
<feColorMatrix type="matrix" values="0 0 0 0 0.956863 0 0 0 0 0.427451 0 0 0 0 0.411765 0 0 0 1 0"/>
<feBlend mode="normal" in2="BackgroundImageFix" result="effect1_dropShadow"/>
<feBlend mode="normal" in="SourceGraphic" in2="effect1_dropShadow" result="shape"/>
</filter>
</defs>
</svg>
