<svg width="420" height="149" viewBox="0 0 420 149" fill="none" xmlns="http://www.w3.org/2000/svg">
<path d="M3.55565 41.571C2.30547 31.2566 -3.41807 14.7937 3.55541 7.2176C12.5001 -2.5 83.6691 1.99974 99.9999 1.99974C125.041 1.99974 156.699 2.83589 179.5 1.99982C234.476 -0.0160629 272.905 1.99982 332.785 1.99982L332.801 1.99982C352.418 2.00004 418 2.00077 418 7.2176C420.762 17.9683 412.082 27.8228 411.677 37.108C411.411 43.2148 304.115 46.7484 285 48C265.728 49.2619 161.576 44.9156 142.259 44.9156H46.451C35.4091 44.9156 4.44492 48.9078 3.55565 41.571Z" fill="#D2FFFF"/>
</svg>
