<svg width="412" height="45" viewBox="0 0 412 45" fill="none" xmlns="http://www.w3.org/2000/svg">
<path d="M2.55592 40.571C1.30575 30.2566 -2 18.5 2.55568 6.21762C5.49642 -1.71078 80.1693 0.999548 96.5002 0.999766C116.077 1.00003 146.722 1.00001 169.736 0.999996L182.5 0.999991C237.476 -1.01589 271.906 0.999845 331.785 0.999845L331.798 0.999845C351.408 1.00006 410.678 1.00072 410.678 6.21785C413.44 16.9685 411.083 26.8228 410.678 36.108C399.5 48.4999 299.5 36.108 277.349 40.571C252 43.9157 160.577 43.9157 141.259 43.9157H45.4513C34.4094 43.9157 3.44519 47.9078 2.55592 40.571Z" fill="#D2FFFF"/>
</svg>
