<svg width="920" height="109" viewBox="0 0 920 109" fill="none" xmlns="http://www.w3.org/2000/svg">
<path d="M87.7423 39.6895C87.8323 44.6424 85.7978 51.5531 82.7978 56.1895C77.2978 64.6895 73.7978 67.1895 73.7978 67.1895C75.2978 69.6895 82.7978 80.7179 87.7423 87.5587C90.1075 90.831 98.2978 102.74 95.6924 102.74C88.7978 104.189 64.7979 104.738 63.2979 102.904C61.7979 101.071 54.2979 84.1895 52.7979 79.1895C52.7979 79.1895 50.5897 72.3809 48.7979 71.1895C45.7979 71.1895 39.7979 69.6895 35.2346 71.1895C35.2346 78.7916 35.4015 84.0128 35.2346 91.6895C35.1697 94.6725 35.2346 102.74 35.2346 102.74C28.7979 104.689 14.7979 102.74 5.79785 102.904C3.00402 102.74 3.30588 79.3652 3.45472 76.2395C3.71528 70.7678 1.60233 10.8202 4.00938 10.1325C16.0318 6.69748 31.7978 4.18942 42.7979 4.18945C53.7979 4.18948 69.6234 6.24333 78.2979 14.6895C86.9723 23.1356 87.5938 31.5251 87.7423 39.6895Z" stroke="#C8B0E8" stroke-width="4"/>
<path d="M57.2969 44.6899C55.6981 49.8861 43.746 52.384 35.2343 48.9388C34.1455 32.1896 34.1455 29.7106 34.1455 29.7106C37.2969 29.7106 48.2969 26.7099 54.2969 29.7105C60.2969 32.7111 58.8957 39.4937 57.2969 44.6899Z" stroke="#C8B0E8" stroke-width="4"/>
<path d="M142.633 7.5236C131.841 7.5236 122.798 7.15382 110.299 7.89337C110.299 16.5181 110.669 25.1614 110.669 33.798C110.669 47.2536 110.074 63.4715 111.798 76.6895C112.763 84.0858 110.669 91.2579 110.669 98.5697C112.435 100.706 142.633 98.5697 157.298 100.689C165.811 101.92 189.06 100.955 189.06 98.5697V78.5199H171.298H143.414C143.414 78.5199 141.201 69.109 144.298 63.6896H179.528V44.8706L157.298 45.6896C157.298 45.6896 145.971 45.5805 143.414 44.8501V32.2983C157.298 29.6896 189.06 32.2983 189.06 32.2983C189.06 32.2983 190.724 12.6896 190.724 7.89315C187.417 7.15373 162.604 7.89329 158.944 7.89329C153.484 7.89329 148.096 7.5236 142.633 7.5236Z" stroke="#C8B0E8" stroke-width="4"/>
<path d="M294.815 22.6842C286.798 -1.81053 227.204 6.48057 207.798 7.18958C207.798 19.6014 209.582 30.6895 210.055 44.4596C210.886 68.6895 210.055 98.1177 210.055 98.1177C212.798 98.1177 268.298 106.689 286.798 98.1177C299.298 90.1895 301.057 80.1895 298.798 69.6895C295.781 55.6695 274.298 55.1895 274.298 55.1895C274.298 55.1895 300.298 55.1895 294.815 22.6842Z" stroke="#C8B0E8" stroke-width="4"/>
<path d="M235.651 45.2402C233.298 38.6895 235.652 28.9702 235.652 28.9702C241.798 26.6893 252.298 26.737 258.002 28.9702C263.707 31.2034 264.798 40.1895 260.298 45.2402C255.884 50.1943 241.798 45.2402 235.651 45.2402Z" stroke="#C8B0E8" stroke-width="4"/>
<path d="M241.297 84.6892C237.798 84.6892 237.797 68.5821 237.798 64.1892C240.541 61.6892 265.281 61.0534 263.298 74.1895C262.152 81.7797 248.298 84.2064 241.297 84.6892Z" stroke="#C8B0E8" stroke-width="4"/>
<path d="M378.298 56.1897C378.298 45.6896 380.798 33.114 368.748 28.2188C357.918 23.8189 348.298 35.1894 348.298 45.6896C348.298 56.1897 346.298 75.6899 360.855 79.2016C378.298 79.2016 376.789 63.1465 378.298 56.1897Z" stroke="#C8B0E8" stroke-width="4"/>
<path d="M319.298 27.1894C312.454 40.8783 315.769 59.7152 319.298 73.1895C322.184 84.2072 328.545 94.3127 336.798 99.1895C350.562 107.323 376.414 105.599 389.298 96.7131C397.633 90.9648 401.512 85.5075 404.199 75.5494C407.129 64.6927 406.607 50.6895 406.607 39.9912C406.607 22.6895 387.958 4.91455 365.898 4.91455C346.485 4.91455 329.766 9.307 319.298 27.1894Z" stroke="#C8B0E8" stroke-width="4"/>
<path d="M505.937 87.1895C505.937 87.1895 507.139 78.3985 505.937 78.1314C504.735 77.8643 462.954 78.1314 462.954 78.1314C462.954 63.1355 462.825 47.0866 464.212 32.1894C464.888 24.921 464.278 6.35931 462.954 6.35931C452.877 5.76655 439.733 4.59293 429.724 6.35937C426.797 19.6895 428.595 44.6305 429.483 57.5162C430.225 68.265 429.724 89.6895 429.724 89.6895C429.724 89.6895 429.483 98.0948 429.483 101.703C429.483 106.294 455.133 102.041 460.297 102.452C460.297 102.452 484.064 102.012 494.419 102.452C495.343 102.492 505.868 102.868 505.937 101.703C506.261 96.1883 504.915 92.8653 505.937 87.1895Z" stroke="#C8B0E8" stroke-width="4"/>
<path d="M523.877 101.717C537.076 101.717 550.629 102.902 563.798 101.717C571.932 100.984 589.798 102.733 599.298 101.717V77.6895C597.385 73.209 560.298 75.1895 555.716 75.1895C555.716 75.1895 555.087 51.0828 555.716 43.1895C556.137 37.9012 558.452 8.61517 553.87 4.68736C553.87 4.68736 530.313 3.82215 523.877 4.67398C519.298 5.28003 523.877 45.6895 523.877 57.5966C523.876 69.5037 523.877 101.717 523.877 101.717Z" stroke="#C8B0E8" stroke-width="4"/>
<path d="M652.947 30.1897C652.947 29.205 670.298 30.1897 670.298 30.1897C674.298 30.1897 685.683 29.4886 694.798 30.1897C697.798 30.4205 698.052 12.14 697.298 6.18982C695.448 5.16889 660.722 4.85425 650.967 5.16892C639.813 5.52873 630.286 2.96948 619.289 5.16896C619.289 11.0432 618.663 21.1128 619.288 27.3627C620.292 37.404 620.132 59.7264 619.287 72.6895C618.672 82.1342 619.288 93.1895 619.342 99.1614C623.799 101.222 644.798 101.222 657.298 101.222C669.798 101.222 689.776 102.482 695.448 101.222C699.063 100.418 699.181 83.0753 699.181 78.8405C695.448 75.6895 657.298 78.8405 652.01 77.7703C650.938 76.8323 651.801 65.127 652.298 64.1895C653.21 62.4661 687.295 64.1895 687.381 62.4661C687.678 56.5296 687.381 45.1895 687.381 45.1895H652.947C652.743 41.5226 652.947 33.9219 652.947 30.1897Z" stroke="#C8B0E8" stroke-width="4"/>
<path d="M753.297 6.68984C741.619 5.84819 726.903 7.1165 715.313 9.00869C715.313 33.2258 712.298 36.0096 712.298 60.1895C712.298 66.19 713.693 94.4662 714.604 100.392C714.844 101.949 745.798 102.689 747.797 102.689C779.742 102.689 792.69 100.189 800.69 72.1895C803.431 59.4846 804.887 44.7802 800.69 32.1895C794.418 13.3719 770.005 7.89398 753.297 6.68984Z" stroke="#C8B0E8" stroke-width="4"/>
<path d="M747.797 33.6895C745.797 41.6897 747.797 63.1897 747.797 73.1893C751.069 77.7988 774.297 71.6895 774.297 52.6895C774.297 40.1896 757.297 30.6895 747.797 33.6895Z" stroke="#C8B0E8" stroke-width="4"/>
<path d="M884.298 65.1895C882.244 73.1744 874.297 84.1895 863.797 78.6895C853.797 74.6895 851.604 58.2122 852.798 49.6895C854.002 41.0833 858.979 31.1373 868.619 28.995C889.298 27.1895 886.684 55.9084 884.298 65.1895Z" stroke="#C8B0E8" stroke-width="4"/>
<path d="M825.798 80.1896C821.485 70.6896 818.257 43.1382 827.798 27.7907C835.013 16.1838 845.875 5.81237 859.298 3.18954C880.798 -1.01124 905.896 7.449 912.798 27.7907C923.45 59.1873 918.312 90.2491 887.798 102.189C860.716 112.787 835.557 101.69 825.798 80.1896Z" stroke="#C8B0E8" stroke-width="4"/>
</svg>
