<svg width="634" height="108" viewBox="0 0 634 108" fill="none" xmlns="http://www.w3.org/2000/svg">
<path d="M36.2986 102.134H5.28929C2.29784 91.1892 2.72564 68.6675 2.29784 56.6892C1.80004 42.7508 1.79871 19.6891 3.2979 6.68911C21.2758 5.72637 38.7986 5.18945 55.2979 5.18945C71.7971 5.18945 81.7692 10.3948 90.0339 18.6595C97.2478 25.8734 98.3162 36.3565 97.4076 45.8964C96.5098 55.3237 88.3549 60.9646 81.1431 65.442C81.1431 65.442 89.1244 79.0053 90.3867 81.53C91.2138 83.1842 102.299 101.689 101.799 102.189C101.299 102.689 81.8042 103.042 71.9701 102.769C71.9701 102.769 53.4424 78.2709 52.7986 71.189H38.7986C38.7986 76.189 38.2986 100.189 36.2986 102.134Z" stroke="#C8B0E8" stroke-width="4"/>
<path d="M51.7979 51.1895C46.8876 51.1895 42.4821 50.9969 37.677 50.0593C37.677 42.9074 37.042 38.4731 37.042 31.3252C37.042 31.3252 55.4877 31.4074 57.8577 32.1367C63.3232 33.8183 65.2979 41.6895 62.2979 46.1895C60.7979 48.6895 56.6245 51.1895 51.7979 51.1895Z" stroke="#C8B0E8" stroke-width="4"/>
<path d="M174.298 52.741C174.298 59.2925 172.434 65.6895 171.798 68.1895C169 79.1895 150.798 76.6895 147.798 70.6895C145.256 65.6064 145.001 58.0828 145.001 52.741C145.001 45.0173 146.912 39.7802 151.951 33.901C155.903 29.2912 166.657 30.155 170.403 33.9011C174.722 38.2199 174.298 47.1674 174.298 52.741Z" stroke="#C8B0E8" stroke-width="4"/>
<path d="M205.967 48.5068C205.967 36.5037 203.025 20.5576 190.799 11.6893C178.572 2.82067 165.267 3.00361 154.299 3.68914C138.299 4.68915 122.909 15.5884 118.799 31.6891C114.403 48.9061 115.2 71.6891 125.799 86.1891C133.799 97.1337 148.299 102.134 165.289 102.134C177.299 102.134 189.524 97.7978 196.799 87.1891C203.792 76.9914 205.967 60.5181 205.967 48.5068Z" stroke="#C8B0E8" stroke-width="4"/>
<path d="M263.299 55.6894C263.269 55.1173 259.276 40.216 259.276 40.216C259.276 40.216 257.299 69.1894 257.299 84.1894C257.123 85.6859 258.677 103.722 256.172 105.309C247.568 105.309 234.942 104.645 226.254 104.074C220.299 99.4526 223.749 62.1894 223.748 49.7066C223.748 34.6894 223.938 22.2411 226.253 7.19316C226.253 7.19316 243.298 5.4644 247.798 5.46464C257.994 5.46464 271.798 6.87564 275.823 6.87564C276.798 7.19316 286.799 68.1894 286.799 68.1894L294.647 39.6847L302.799 7.19316C304.11 5.18786 318.689 6.87564 318.689 6.87564L345.538 5.4644C349.207 4.28522 349.454 45.2965 349.454 45.2965C349.454 45.2965 348.386 67.8097 349.454 87.8805C349.683 88.8923 349.109 105.22 347.584 105.309C347.584 105.309 320.133 106.32 318.689 103.722C316.299 95.6895 317.737 82.848 317.737 74.1915C317.737 62.4386 314.799 40.216 314.799 40.216C309.996 53.9948 304.299 81.6894 304.299 81.6894C303.429 85.3272 300.808 104.899 297.097 104.074C291.833 102.904 274.769 105.309 273.799 102.689C272.403 98.9207 271.344 91.7402 270.425 87.8805C266.937 73.2326 263.299 55.6894 263.299 55.6894Z" stroke="#C8B0E8" stroke-width="4"/>
<path d="M369.811 90.7736C369.811 92.6698 371.398 104.039 371.398 104.039C382.185 104.039 393.217 103.404 404.421 103.404C408.163 103.404 405.798 61.6895 405.798 55.1895C405.798 47.4708 410.866 5.56852 408.831 4.40606C400.51 -0.349178 376.636 3.20658 367.298 4.40601C367.298 12.4898 366.095 31.7984 369.811 43.6895C373.298 60.1895 369.811 73.4345 369.811 90.7736Z" stroke="#C8B0E8" stroke-width="4"/>
<path d="M452.368 99.276C452.368 102.379 425.06 100.864 425.06 100.864C423.297 95.1895 425.061 49.0455 425.061 39.6895C425.061 34.0423 420.89 4.8496 425.06 4.68923C432.886 3.13833 444.298 4.68946 452.862 6.2404C459.03 6.2404 485.391 62.1252 485.391 62.1252C485.391 62.1252 485.546 41.6319 485.391 39.6895C485.391 34.6895 486.798 6.55793 486.798 6.55793C489.287 2.20153 515.798 5.63398 517.461 6.55793C519.124 7.48187 520.146 49.6895 517.461 64.1895C515.757 73.3905 516.983 90.1403 519.013 99.276C519.113 99.7222 484.791 100.864 481.58 98.6409C477.986 90.5535 473.472 82.5172 469.297 74.6895C464.716 66.0997 455.798 48.1895 455.798 48.1895C455.798 53.5167 452.368 84.4655 452.368 99.276Z" stroke="#C8B0E8" stroke-width="4"/>
<path d="M591.798 80.898C589.59 80.898 571.509 80.3642 571.442 80.898C571.249 82.4386 566.798 101.689 566.798 101.689C555.671 102.117 532.298 101.689 532.298 101.689C531.028 95.3485 539.952 76.071 541.298 70.6893C542.933 64.1485 548.579 45.1005 550.798 38.6893C558.007 17.864 562.201 10.1891 563.045 8.50165C563.889 6.81419 600.796 5.80267 601.431 7.23154C608.173 22.4023 612.706 38.014 617.34 53.9795L617.484 54.4726C622.073 70.2814 624.798 82.6895 631.772 98.0445C634.81 104.731 604.298 102.689 598.798 101.689C598.798 101.689 594.005 80.898 591.798 80.898Z" stroke="#C8B0E8" stroke-width="4"/>
<path d="M591.298 63.1895H571.798C571.798 51.2133 581.249 28.1851 581.249 28.1851C582.798 28.1851 594.454 61.8485 591.298 63.1895Z" stroke="#C8B0E8" stroke-width="4"/>
</svg>
