<svg width="36" height="39" viewBox="0 0 36 39" fill="none" xmlns="http://www.w3.org/2000/svg">
<path d="M14.4616 33.7743L13.4009 32.7137L11.2796 34.8349L12.3402 35.8956L14.4616 33.7743ZM33.4341 10.7868L32.4435 11.9132L33.4341 10.7868ZM26.8128 6.62464L27.5978 5.34644L26.8128 6.62464ZM9.2392 6.62464L8.43388 5.35915L9.2392 6.62464ZM2.30223 10.7868L0.80223 10.7868L2.30223 10.7868ZM2.76416 28.8229L1.70348 29.8836L1.87566 30.0558L2.09346 30.1646L2.76416 28.8229ZM10.164 31.5977L9.80022 30.1425L9.70146 30.1672L9.60694 30.205L10.164 31.5977ZM13.5472 13.5616V12.0616H10.5472V13.5616H13.5472ZM12.3402 35.8956C12.9803 36.5358 14.0853 37.2011 15.0423 37.6796C15.5447 37.9308 16.0637 38.1592 16.5382 38.3287C16.962 38.48 17.5175 38.6473 18.0255 38.6473V35.6473C18.071 35.6473 17.9328 35.6411 17.5472 35.5034C17.2125 35.3839 16.8065 35.2076 16.384 34.9963C15.4911 34.5499 14.7463 34.0591 14.4616 33.7743L12.3402 35.8956ZM34.4248 9.66047C33.4413 8.79553 32.0802 7.9415 30.8397 7.21325C29.5105 6.43298 28.4105 5.84553 27.5978 5.34644L26.0278 7.90285C26.8324 8.39694 28.1768 9.12879 29.3209 9.80041C30.5537 10.5241 31.6946 11.2545 32.4435 11.9132L34.4248 9.66047ZM8.43388 5.35915C8.06811 5.59192 7.49091 5.87689 6.74595 6.22109C6.04278 6.54598 5.18972 6.92385 4.42503 7.29305C3.66184 7.66153 2.87059 8.0752 2.25448 8.51508C1.94747 8.73427 1.62201 9.00298 1.3603 9.32507C1.1063 9.63767 0.802239 10.1374 0.80223 10.7868L3.80223 10.7868C3.80223 11.1007 3.65715 11.2556 3.68861 11.2169C3.71236 11.1877 3.79882 11.0986 3.99766 10.9567C4.39327 10.6742 4.98951 10.3519 5.72939 9.99465C6.46777 9.63815 7.23336 9.30063 8.00425 8.94445C8.73334 8.60758 9.4856 8.2458 10.0445 7.89014L8.43388 5.35915ZM0.801942 19.7817C0.802087 20.2893 0.750324 20.9917 0.68374 21.8597C0.619296 22.6998 0.544065 23.6622 0.51382 24.6006C0.483826 25.5313 0.495079 26.5057 0.622896 27.3696C0.741426 28.1707 0.999035 29.1791 1.70348 29.8836L3.82483 27.7623C3.83561 27.7731 3.68868 27.5935 3.59059 26.9305C3.50178 26.3303 3.48431 25.5646 3.51226 24.6973C3.53997 23.8377 3.60935 22.9444 3.67495 22.0892C3.73841 21.2619 3.80213 20.4294 3.80194 19.7808L0.801942 19.7817ZM18.0255 0.5C17.2683 0.5 16.4791 0.745054 15.7694 1.03752C15.0327 1.34109 14.2406 1.75648 13.4403 2.21691C11.8529 3.13022 10.0585 4.32528 8.43388 5.35915L10.0445 7.89014C11.7523 6.80335 13.4262 5.68609 14.9364 4.81724C15.6849 4.38659 16.3489 4.04344 16.9124 3.81125C17.5028 3.56794 17.8578 3.5 18.0255 3.5V0.5ZM0.80223 10.7868C0.802184 14.0705 0.80128 17.4691 0.801942 19.7817L3.80194 19.7808C3.80128 17.4688 3.80218 14.0719 3.80223 10.7868L0.80223 10.7868ZM2.09346 30.1646C2.47594 30.3558 2.95298 30.6555 3.57949 31.0479C4.17503 31.421 4.87256 31.856 5.597 32.2339C6.93326 32.9311 8.88203 33.7261 10.7211 32.9904L9.60694 30.205C9.1337 30.3943 8.30768 30.2644 6.98466 29.5741C6.37946 29.2584 5.77623 28.884 5.17212 28.5056C4.599 28.1466 3.97752 27.7525 3.43485 27.4812L2.09346 30.1646ZM10.5278 33.0529C12.0758 32.6659 12.9584 31.5213 13.4209 30.3069C13.867 29.1354 13.9886 27.7574 13.993 26.4852C13.9975 25.1908 13.8787 23.8677 13.7655 22.757C13.6458 21.5812 13.5472 20.7517 13.5472 20.2501H10.5472C10.5472 20.9525 10.6758 22.0279 10.781 23.061C10.8928 24.1592 10.9969 25.349 10.993 26.4749C10.9891 27.623 10.8711 28.5726 10.6173 29.2393C10.3798 29.8629 10.1021 30.067 9.80022 30.1425L10.5278 33.0529ZM13.5472 20.2501C13.5472 20.2461 13.5472 20.2421 13.5472 20.2381C13.5472 20.2341 13.5472 20.2301 13.5472 20.2261C13.5472 20.2221 13.5472 20.218 13.5472 20.214C13.5472 20.21 13.5472 20.206 13.5472 20.2019C13.5472 20.1979 13.5472 20.1939 13.5472 20.1898C13.5472 20.1858 13.5472 20.1818 13.5472 20.1777C13.5472 20.1737 13.5472 20.1696 13.5472 20.1656C13.5472 20.1616 13.5472 20.1575 13.5472 20.1535C13.5472 20.1494 13.5472 20.1453 13.5472 20.1413C13.5472 20.1372 13.5472 20.1332 13.5472 20.1291C13.5472 20.125 13.5472 20.121 13.5472 20.1169C13.5472 20.1128 13.5472 20.1088 13.5472 20.1047C13.5472 20.1006 13.5472 20.0965 13.5472 20.0925C13.5472 20.0884 13.5472 20.0843 13.5472 20.0802C13.5472 20.0761 13.5472 20.072 13.5472 20.0679C13.5472 20.0639 13.5472 20.0598 13.5472 20.0557C13.5472 20.0516 13.5472 20.0475 13.5472 20.0434C13.5472 20.0393 13.5472 20.0352 13.5472 20.031C13.5472 20.0269 13.5472 20.0228 13.5472 20.0187C13.5472 20.0146 13.5472 20.0105 13.5472 20.0064C13.5472 20.0022 13.5472 19.9981 13.5472 19.994C13.5472 19.9899 13.5472 19.9857 13.5472 19.9816C13.5472 19.9775 13.5472 19.9734 13.5472 19.9692C13.5472 19.9651 13.5472 19.9609 13.5472 19.9568C13.5472 19.9527 13.5472 19.9485 13.5472 19.9444C13.5472 19.9402 13.5472 19.9361 13.5472 19.9319C13.5472 19.9278 13.5472 19.9236 13.5472 19.9195C13.5472 19.9153 13.5472 19.9111 13.5472 19.907C13.5472 19.9028 13.5472 19.8987 13.5472 19.8945C13.5472 19.8903 13.5472 19.8862 13.5472 19.882C13.5472 19.8778 13.5472 19.8736 13.5472 19.8695C13.5472 19.8653 13.5472 19.8611 13.5472 19.8569C13.5472 19.8527 13.5472 19.8486 13.5472 19.8444C13.5472 19.8402 13.5472 19.836 13.5472 19.8318C13.5472 19.8276 13.5472 19.8234 13.5472 19.8192C13.5472 19.815 13.5472 19.8108 13.5472 19.8066C13.5472 19.8024 13.5472 19.7982 13.5472 19.794C13.5472 19.7898 13.5472 19.7856 13.5472 19.7814C13.5472 19.7771 13.5472 19.7729 13.5472 19.7687C13.5472 19.7645 13.5472 19.7603 13.5472 19.7561C13.5472 19.7518 13.5472 19.7476 13.5472 19.7434C13.5472 19.7392 13.5472 19.7349 13.5472 19.7307C13.5472 19.7265 13.5472 19.7222 13.5472 19.718C13.5472 19.7137 13.5472 19.7095 13.5472 19.7053C13.5472 19.701 13.5472 19.6968 13.5472 19.6925C13.5472 19.6883 13.5472 19.684 13.5472 19.6798C13.5472 19.6755 13.5472 19.6713 13.5472 19.667C13.5472 19.6628 13.5472 19.6585 13.5472 19.6542C13.5472 19.65 13.5472 19.6457 13.5472 19.6415C13.5472 19.6372 13.5472 19.6329 13.5472 19.6287C13.5472 19.6244 13.5472 19.6201 13.5472 19.6158C13.5472 19.6116 13.5472 19.6073 13.5472 19.603C13.5472 19.5987 13.5472 19.5944 13.5472 19.5902C13.5472 19.5859 13.5472 19.5816 13.5472 19.5773C13.5472 19.573 13.5472 19.5687 13.5472 19.5644C13.5472 19.5601 13.5472 19.5558 13.5472 19.5515C13.5472 19.5472 13.5472 19.5429 13.5472 19.5386C13.5472 19.5343 13.5472 19.53 13.5472 19.5257C13.5472 19.5214 13.5472 19.5171 13.5472 19.5128C13.5472 19.5085 13.5472 19.5042 13.5472 19.4999C13.5472 19.4955 13.5472 19.4912 13.5472 19.4869C13.5472 19.4826 13.5472 19.4783 13.5472 19.4739C13.5472 19.4696 13.5472 19.4653 13.5472 19.461C13.5472 19.4566 13.5472 19.4523 13.5472 19.448C13.5472 19.4436 13.5472 19.4393 13.5472 19.435C13.5472 19.4306 13.5472 19.4263 13.5472 19.4219C13.5472 19.4176 13.5472 19.4133 13.5472 19.4089C13.5472 19.4046 13.5472 19.4002 13.5472 19.3959C13.5472 19.3915 13.5472 19.3872 13.5472 19.3828C13.5472 19.3785 13.5472 19.3741 13.5472 19.3698C13.5472 19.3654 13.5472 19.361 13.5472 19.3567C13.5472 19.3523 13.5472 19.348 13.5472 19.3436C13.5472 19.3392 13.5472 19.3349 13.5472 19.3305C13.5472 19.3261 13.5472 19.3217 13.5472 19.3174C13.5472 19.313 13.5472 19.3086 13.5472 19.3042C13.5472 19.2999 13.5472 19.2955 13.5472 19.2911C13.5472 19.2867 13.5472 19.2823 13.5472 19.278C13.5472 19.2736 13.5472 19.2692 13.5472 19.2648C13.5472 19.2604 13.5472 19.256 13.5472 19.2516C13.5472 19.2472 13.5472 19.2428 13.5472 19.2384C13.5472 19.234 13.5472 19.2296 13.5472 19.2252C13.5472 19.2208 13.5472 19.2164 13.5472 19.212C13.5472 19.2076 13.5472 19.2032 13.5472 19.1988C13.5472 19.1944 13.5472 19.19 13.5472 19.1856C13.5472 19.1812 13.5472 19.1767 13.5472 19.1723C13.5472 19.1679 13.5472 19.1635 13.5472 19.1591C13.5472 19.1547 13.5472 19.1502 13.5472 19.1458C13.5472 19.1414 13.5472 19.137 13.5472 19.1325C13.5472 19.1281 13.5472 19.1237 13.5472 19.1192C13.5472 19.1148 13.5472 19.1104 13.5472 19.106C13.5472 19.1015 13.5472 19.0971 13.5472 19.0926C13.5472 19.0882 13.5472 19.0838 13.5472 19.0793C13.5472 19.0749 13.5472 19.0704 13.5472 19.066C13.5472 19.0616 13.5472 19.0571 13.5472 19.0527C13.5472 19.0482 13.5472 19.0438 13.5472 19.0393C13.5472 19.0349 13.5472 19.0304 13.5472 19.0259C13.5472 19.0215 13.5472 19.017 13.5472 19.0126C13.5472 19.0081 13.5472 19.0037 13.5472 18.9992C13.5472 18.9947 13.5472 18.9903 13.5472 18.9858C13.5472 18.9813 13.5472 18.9769 13.5472 18.9724C13.5472 18.9679 13.5472 18.9635 13.5472 18.959C13.5472 18.9545 13.5472 18.9501 13.5472 18.9456C13.5472 18.9411 13.5472 18.9366 13.5472 18.9322C13.5472 18.9277 13.5472 18.9232 13.5472 18.9187C13.5472 18.9142 13.5472 18.9097 13.5472 18.9053C13.5472 18.9008 13.5472 18.8963 13.5472 18.8918C13.5472 18.8873 13.5472 18.8828 13.5472 18.8783C13.5472 18.8739 13.5472 18.8694 13.5472 18.8649C13.5472 18.8604 13.5472 18.8559 13.5472 18.8514C13.5472 18.8469 13.5472 18.8424 13.5472 18.8379C13.5472 18.8334 13.5472 18.8289 13.5472 18.8244C13.5472 18.8199 13.5472 18.8154 13.5472 18.8109C13.5472 18.8064 13.5472 18.8019 13.5472 18.7973C13.5472 18.7928 13.5472 18.7883 13.5472 18.7838C13.5472 18.7793 13.5472 18.7748 13.5472 18.7703C13.5472 18.7658 13.5472 18.7612 13.5472 18.7567C13.5472 18.7522 13.5472 18.7477 13.5472 18.7432C13.5472 18.7387 13.5472 18.7341 13.5472 18.7296C13.5472 18.7251 13.5472 18.7206 13.5472 18.716C13.5472 18.7115 13.5472 18.707 13.5472 18.7025C13.5472 18.6979 13.5472 18.6934 13.5472 18.6889C13.5472 18.6843 13.5472 18.6798 13.5472 18.6753C13.5472 18.6707 13.5472 18.6662 13.5472 18.6617C13.5472 18.6571 13.5472 18.6526 13.5472 18.6481C13.5472 18.6435 13.5472 18.639 13.5472 18.6344C13.5472 18.6299 13.5472 18.6253 13.5472 18.6208C13.5472 18.6163 13.5472 18.6117 13.5472 18.6072C13.5472 18.6026 13.5472 18.5981 13.5472 18.5935C13.5472 18.589 13.5472 18.5844 13.5472 18.5799C13.5472 18.5753 13.5472 18.5708 13.5472 18.5662C13.5472 18.5617 13.5472 18.5571 13.5472 18.5525C13.5472 18.548 13.5472 18.5434 13.5472 18.5389C13.5472 18.5343 13.5472 18.5297 13.5472 18.5252C13.5472 18.5206 13.5472 18.5161 13.5472 18.5115C13.5472 18.5069 13.5472 18.5024 13.5472 18.4978C13.5472 18.4932 13.5472 18.4887 13.5472 18.4841C13.5472 18.4795 13.5472 18.475 13.5472 18.4704C13.5472 18.4658 13.5472 18.4612 13.5472 18.4567C13.5472 18.4521 13.5472 18.4475 13.5472 18.443C13.5472 18.4384 13.5472 18.4338 13.5472 18.4292C13.5472 18.4246 13.5472 18.4201 13.5472 18.4155C13.5472 18.4109 13.5472 18.4063 13.5472 18.4017C13.5472 18.3972 13.5472 18.3926 13.5472 18.388C13.5472 18.3834 13.5472 18.3788 13.5472 18.3742C13.5472 18.3696 13.5472 18.3651 13.5472 18.3605C13.5472 18.3559 13.5472 18.3513 13.5472 18.3467C13.5472 18.3421 13.5472 18.3375 13.5472 18.3329C13.5472 18.3283 13.5472 18.3237 13.5472 18.3192C13.5472 18.3146 13.5472 18.31 13.5472 18.3054C13.5472 18.3008 13.5472 18.2962 13.5472 18.2916C13.5472 18.287 13.5472 18.2824 13.5472 18.2778C13.5472 18.2732 13.5472 18.2686 13.5472 18.264C13.5472 18.2594 13.5472 18.2548 13.5472 18.2502C13.5472 18.2456 13.5472 18.241 13.5472 18.2363C13.5472 18.2317 13.5472 18.2271 13.5472 18.2225C13.5472 18.2179 13.5472 18.2133 13.5472 18.2087C13.5472 18.2041 13.5472 18.1995 13.5472 18.1949C13.5472 18.1903 13.5472 18.1856 13.5472 18.181C13.5472 18.1764 13.5472 18.1718 13.5472 18.1672C13.5472 18.1626 13.5472 18.158 13.5472 18.1533C13.5472 18.1487 13.5472 18.1441 13.5472 18.1395C13.5472 18.1349 13.5472 18.1303 13.5472 18.1256C13.5472 18.121 13.5472 18.1164 13.5472 18.1118C13.5472 18.1072 13.5472 18.1025 13.5472 18.0979C13.5472 18.0933 13.5472 18.0887 13.5472 18.084C13.5472 18.0794 13.5472 18.0748 13.5472 18.0702C13.5472 18.0655 13.5472 18.0609 13.5472 18.0563C13.5472 18.0517 13.5472 18.047 13.5472 18.0424C13.5472 18.0378 13.5472 18.0331 13.5472 18.0285C13.5472 18.0239 13.5472 18.0193 13.5472 18.0146C13.5472 18.01 13.5472 18.0054 13.5472 18.0007C13.5472 17.9961 13.5472 17.9915 13.5472 17.9868C13.5472 17.9822 13.5472 17.9776 13.5472 17.9729C13.5472 17.9683 13.5472 17.9637 13.5472 17.959C13.5472 17.9544 13.5472 17.9497 13.5472 17.9451C13.5472 17.9405 13.5472 17.9358 13.5472 17.9312C13.5472 17.9265 13.5472 17.9219 13.5472 17.9173C13.5472 17.9126 13.5472 17.908 13.5472 17.9033C13.5472 17.8987 13.5472 17.8941 13.5472 17.8894C13.5472 17.8848 13.5472 17.8801 13.5472 17.8755C13.5472 17.8708 13.5472 17.8662 13.5472 17.8616C13.5472 17.8569 13.5472 17.8523 13.5472 17.8476C13.5472 17.843 13.5472 17.8383 13.5472 17.8337C13.5472 17.829 13.5472 17.8244 13.5472 17.8197C13.5472 17.8151 13.5472 17.8104 13.5472 17.8058C13.5472 17.8011 13.5472 17.7965 13.5472 17.7918C13.5472 17.7872 13.5472 17.7825 13.5472 17.7779C13.5472 17.7732 13.5472 17.7686 13.5472 17.7639C13.5472 17.7593 13.5472 17.7546 13.5472 17.75C13.5472 17.7453 13.5472 17.7407 13.5472 17.736C13.5472 17.7314 13.5472 17.7267 13.5472 17.7221C13.5472 17.7174 13.5472 17.7127 13.5472 17.7081C13.5472 17.7034 13.5472 17.6988 13.5472 17.6941C13.5472 17.6895 13.5472 17.6848 13.5472 17.6802C13.5472 17.6755 13.5472 17.6708 13.5472 17.6662C13.5472 17.6615 13.5472 17.6569 13.5472 17.6522C13.5472 17.6476 13.5472 17.6429 13.5472 17.6382C13.5472 17.6336 13.5472 17.6289 13.5472 17.6243C13.5472 17.6196 13.5472 17.6149 13.5472 17.6103C13.5472 17.6056 13.5472 17.601 13.5472 17.5963C13.5472 17.5916 13.5472 17.587 13.5472 17.5823C13.5472 17.5777 13.5472 17.573 13.5472 17.5683C13.5472 17.5637 13.5472 17.559 13.5472 17.5543C13.5472 17.5497 13.5472 17.545 13.5472 17.5404C13.5472 17.5357 13.5472 17.531 13.5472 17.5264C13.5472 17.5217 13.5472 17.517 13.5472 17.5124C13.5472 17.5077 13.5472 17.503 13.5472 17.4984C13.5472 17.4937 13.5472 17.4891 13.5472 17.4844C13.5472 17.4797 13.5472 17.4751 13.5472 17.4704C13.5472 17.4657 13.5472 17.4611 13.5472 17.4564C13.5472 17.4517 13.5472 17.4471 13.5472 17.4424C13.5472 17.4377 13.5472 17.4331 13.5472 17.4284C13.5472 17.4237 13.5472 17.4191 13.5472 17.4144C13.5472 17.4097 13.5472 17.4051 13.5472 17.4004C13.5472 17.3957 13.5472 17.3911 13.5472 17.3864C13.5472 17.3817 13.5472 17.3771 13.5472 17.3724C13.5472 17.3677 13.5472 17.3631 13.5472 17.3584C13.5472 17.3537 13.5472 17.3491 13.5472 17.3444C13.5472 17.3397 13.5472 17.3351 13.5472 17.3304C13.5472 17.3257 13.5472 17.3211 13.5472 17.3164C13.5472 17.3117 13.5472 17.3071 13.5472 17.3024C13.5472 17.2977 13.5472 17.2931 13.5472 17.2884C13.5472 17.2837 13.5472 17.2791 13.5472 17.2744C13.5472 17.2697 13.5472 17.2651 13.5472 17.2604C13.5472 17.2557 13.5472 17.2511 13.5472 17.2464C13.5472 17.2417 13.5472 17.2371 13.5472 17.2324C13.5472 17.2277 13.5472 17.2231 13.5472 17.2184C13.5472 17.2137 13.5472 17.2091 13.5472 17.2044C13.5472 17.1997 13.5472 17.1951 13.5472 17.1904C13.5472 17.1858 13.5472 17.1811 13.5472 17.1764C13.5472 17.1718 13.5472 17.1671 13.5472 17.1624C13.5472 17.1578 13.5472 17.1531 13.5472 17.1484C13.5472 17.1438 13.5472 17.1391 13.5472 17.1344C13.5472 17.1298 13.5472 17.1251 13.5472 17.1204C13.5472 17.1158 13.5472 17.1111 13.5472 17.1064C13.5472 17.1018 13.5472 17.0971 13.5472 17.0925C13.5472 17.0878 13.5472 17.0831 13.5472 17.0785C13.5472 17.0738 13.5472 17.0691 13.5472 17.0645C13.5472 17.0598 13.5472 17.0551 13.5472 17.0505C13.5472 17.0458 13.5472 17.0412 13.5472 17.0365C13.5472 17.0318 13.5472 17.0272 13.5472 17.0225C13.5472 17.0179 13.5472 17.0132 13.5472 17.0085C13.5472 17.0039 13.5472 16.9992 13.5472 16.9945C13.5472 16.9899 13.5472 16.9852 13.5472 16.9806C13.5472 16.9759 13.5472 16.9712 13.5472 16.9666C13.5472 16.9619 13.5472 16.9573 13.5472 16.9526C13.5472 16.948 13.5472 16.9433 13.5472 16.9386C13.5472 16.934 13.5472 16.9293 13.5472 16.9247C13.5472 16.92 13.5472 16.9154 13.5472 16.9107C13.5472 16.906 13.5472 16.9014 13.5472 16.8967C13.5472 16.8921 13.5472 16.8874 13.5472 16.8828C13.5472 16.8781 13.5472 16.8735 13.5472 16.8688C13.5472 16.8641 13.5472 16.8595 13.5472 16.8548C13.5472 16.8502 13.5472 16.8455 13.5472 16.8409C13.5472 16.8362 13.5472 16.8316 13.5472 16.8269C13.5472 16.8223 13.5472 16.8176 13.5472 16.813C13.5472 16.8083 13.5472 16.8037 13.5472 16.799C13.5472 16.7944 13.5472 16.7897 13.5472 16.7851C13.5472 16.7804 13.5472 16.7758 13.5472 16.7711C13.5472 16.7665 13.5472 16.7618 13.5472 16.7572C13.5472 16.7526 13.5472 16.7479 13.5472 16.7433C13.5472 16.7386 13.5472 16.734 13.5472 16.7293C13.5472 16.7247 13.5472 16.72 13.5472 16.7154C13.5472 16.7108 13.5472 16.7061 13.5472 16.7015C13.5472 16.6968 13.5472 16.6922 13.5472 16.6875C13.5472 16.6829 13.5472 16.6783 13.5472 16.6736C13.5472 16.669 13.5472 16.6643 13.5472 16.6597C13.5472 16.6551 13.5472 16.6504 13.5472 16.6458C13.5472 16.6412 13.5472 16.6365 13.5472 16.6319C13.5472 16.6272 13.5472 16.6226 13.5472 16.618C13.5472 16.6133 13.5472 16.6087 13.5472 16.6041C13.5472 16.5994 13.5472 16.5948 13.5472 16.5902C13.5472 16.5855 13.5472 16.5809 13.5472 16.5763C13.5472 16.5717 13.5472 16.567 13.5472 16.5624C13.5472 16.5578 13.5472 16.5531 13.5472 16.5485C13.5472 16.5439 13.5472 16.5393 13.5472 16.5346C13.5472 16.53 13.5472 16.5254 13.5472 16.5208C13.5472 16.5161 13.5472 16.5115 13.5472 16.5069C13.5472 16.5023 13.5472 16.4976 13.5472 16.493C13.5472 16.4884 13.5472 16.4838 13.5472 16.4792C13.5472 16.4745 13.5472 16.4699 13.5472 16.4653C13.5472 16.4607 13.5472 16.4561 13.5472 16.4514C13.5472 16.4468 13.5472 16.4422 13.5472 16.4376C13.5472 16.433 13.5472 16.4284 13.5472 16.4238C13.5472 16.4191 13.5472 16.4145 13.5472 16.4099C13.5472 16.4053 13.5472 16.4007 13.5472 16.3961C13.5472 16.3915 13.5472 16.3869 13.5472 16.3823C13.5472 16.3777 13.5472 16.373 13.5472 16.3684C13.5472 16.3638 13.5472 16.3592 13.5472 16.3546C13.5472 16.35 13.5472 16.3454 13.5472 16.3408C13.5472 16.3362 13.5472 16.3316 13.5472 16.327C13.5472 16.3224 13.5472 16.3178 13.5472 16.3132C13.5472 16.3086 13.5472 16.304 13.5472 16.2994C13.5472 16.2948 13.5472 16.2902 13.5472 16.2856C13.5472 16.281 13.5472 16.2764 13.5472 16.2719C13.5472 16.2673 13.5472 16.2627 13.5472 16.2581C13.5472 16.2535 13.5472 16.2489 13.5472 16.2443C13.5472 16.2397 13.5472 16.2351 13.5472 16.2305C13.5472 16.226 13.5472 16.2214 13.5472 16.2168C13.5472 16.2122 13.5472 16.2076 13.5472 16.203C13.5472 16.1985 13.5472 16.1939 13.5472 16.1893C13.5472 16.1847 13.5472 16.1801 13.5472 16.1756C13.5472 16.171 13.5472 16.1664 13.5472 16.1618C13.5472 16.1572 13.5472 16.1527 13.5472 16.1481C13.5472 16.1435 13.5472 16.139 13.5472 16.1344C13.5472 16.1298 13.5472 16.1252 13.5472 16.1207C13.5472 16.1161 13.5472 16.1115 13.5472 16.107C13.5472 16.1024 13.5472 16.0978 13.5472 16.0933C13.5472 16.0887 13.5472 16.0841 13.5472 16.0796C13.5472 16.075 13.5472 16.0705 13.5472 16.0659C13.5472 16.0613 13.5472 16.0568 13.5472 16.0522C13.5472 16.0477 13.5472 16.0431 13.5472 16.0385C13.5472 16.034 13.5472 16.0294 13.5472 16.0249C13.5472 16.0203 13.5472 16.0158 13.5472 16.0112C13.5472 16.0067 13.5472 16.0021 13.5472 15.9976C13.5472 15.993 13.5472 15.9885 13.5472 15.9839C13.5472 15.9794 13.5472 15.9749 13.5472 15.9703C13.5472 15.9658 13.5472 15.9612 13.5472 15.9567C13.5472 15.9522 13.5472 15.9476 13.5472 15.9431C13.5472 15.9385 13.5472 15.934 13.5472 15.9295C13.5472 15.9249 13.5472 15.9204 13.5472 15.9159C13.5472 15.9113 13.5472 15.9068 13.5472 15.9023C13.5472 15.8978 13.5472 15.8932 13.5472 15.8887C13.5472 15.8842 13.5472 15.8797 13.5472 15.8751C13.5472 15.8706 13.5472 15.8661 13.5472 15.8616C13.5472 15.857 13.5472 15.8525 13.5472 15.848C13.5472 15.8435 13.5472 15.839 13.5472 15.8345C13.5472 15.8299 13.5472 15.8254 13.5472 15.8209C13.5472 15.8164 13.5472 15.8119 13.5472 15.8074C13.5472 15.8029 13.5472 15.7984 13.5472 15.7939C13.5472 15.7894 13.5472 15.7848 13.5472 15.7803C13.5472 15.7758 13.5472 15.7713 13.5472 15.7668C13.5472 15.7623 13.5472 15.7578 13.5472 15.7533C13.5472 15.7488 13.5472 15.7443 13.5472 15.7399C13.5472 15.7354 13.5472 15.7309 13.5472 15.7264C13.5472 15.7219 13.5472 15.7174 13.5472 15.7129C13.5472 15.7084 13.5472 15.7039 13.5472 15.6994C13.5472 15.695 13.5472 15.6905 13.5472 15.686C13.5472 15.6815 13.5472 15.677 13.5472 15.6726C13.5472 15.6681 13.5472 15.6636 13.5472 15.6591C13.5472 15.6547 13.5472 15.6502 13.5472 15.6457C13.5472 15.6412 13.5472 15.6368 13.5472 15.6323C13.5472 15.6278 13.5472 15.6234 13.5472 15.6189C13.5472 15.6144 13.5472 15.61 13.5472 15.6055C13.5472 15.601 13.5472 15.5966 13.5472 15.5921C13.5472 15.5877 13.5472 15.5832 13.5472 15.5787C13.5472 15.5743 13.5472 15.5698 13.5472 15.5654C13.5472 15.5609 13.5472 15.5565 13.5472 15.552C13.5472 15.5476 13.5472 15.5431 13.5472 15.5387C13.5472 15.5342 13.5472 15.5298 13.5472 15.5254C13.5472 15.5209 13.5472 15.5165 13.5472 15.512C13.5472 15.5076 13.5472 15.5032 13.5472 15.4987C13.5472 15.4943 13.5472 15.4899 13.5472 15.4854C13.5472 15.481 13.5472 15.4766 13.5472 15.4721C13.5472 15.4677 13.5472 15.4633 13.5472 15.4589C13.5472 15.4544 13.5472 15.45 13.5472 15.4456C13.5472 15.4412 13.5472 15.4368 13.5472 15.4323C13.5472 15.4279 13.5472 15.4235 13.5472 15.4191C13.5472 15.4147 13.5472 15.4103 13.5472 15.4059C13.5472 15.4015 13.5472 15.3971 13.5472 15.3926C13.5472 15.3882 13.5472 15.3838 13.5472 15.3794C13.5472 15.375 13.5472 15.3706 13.5472 15.3662C13.5472 15.3618 13.5472 15.3574 13.5472 15.353C13.5472 15.3487 13.5472 15.3443 13.5472 15.3399C13.5472 15.3355 13.5472 15.3311 13.5472 15.3267C13.5472 15.3223 13.5472 15.3179 13.5472 15.3136C13.5472 15.3092 13.5472 15.3048 13.5472 15.3004C13.5472 15.296 13.5472 15.2917 13.5472 15.2873C13.5472 15.2829 13.5472 15.2785 13.5472 15.2742C13.5472 15.2698 13.5472 15.2654 13.5472 15.2611C13.5472 15.2567 13.5472 15.2523 13.5472 15.248C13.5472 15.2436 13.5472 15.2392 13.5472 15.2349C13.5472 15.2305 13.5472 15.2262 13.5472 15.2218C13.5472 15.2175 13.5472 15.2131 13.5472 15.2088C13.5472 15.2044 13.5472 15.2001 13.5472 15.1957C13.5472 15.1914 13.5472 15.187 13.5472 15.1827C13.5472 15.1783 13.5472 15.174 13.5472 15.1697C13.5472 15.1653 13.5472 15.161 13.5472 15.1567C13.5472 15.1523 13.5472 15.148 13.5472 15.1437C13.5472 15.1393 13.5472 15.135 13.5472 15.1307C13.5472 15.1264 13.5472 15.122 13.5472 15.1177C13.5472 15.1134 13.5472 15.1091 13.5472 15.1048C13.5472 15.1004 13.5472 15.0961 13.5472 15.0918C13.5472 15.0875 13.5472 15.0832 13.5472 15.0789C13.5472 15.0746 13.5472 15.0703 13.5472 15.066C13.5472 15.0617 13.5472 15.0574 13.5472 15.0531C13.5472 15.0488 13.5472 15.0445 13.5472 15.0402C13.5472 15.0359 13.5472 15.0316 13.5472 15.0273C13.5472 15.023 13.5472 15.0187 13.5472 15.0144C13.5472 15.0101 13.5472 15.0059 13.5472 15.0016C13.5472 14.9973 13.5472 14.993 13.5472 14.9888C13.5472 14.9845 13.5472 14.9802 13.5472 14.9759C13.5472 14.9717 13.5472 14.9674 13.5472 14.9631C13.5472 14.9589 13.5472 14.9546 13.5472 14.9503C13.5472 14.9461 13.5472 14.9418 13.5472 14.9376C13.5472 14.9333 13.5472 14.929 13.5472 14.9248C13.5472 14.9205 13.5472 14.9163 13.5472 14.912C13.5472 14.9078 13.5472 14.9035 13.5472 14.8993C13.5472 14.8951 13.5472 14.8908 13.5472 14.8866C13.5472 14.8823 13.5472 14.8781 13.5472 14.8739C13.5472 14.8696 13.5472 14.8654 13.5472 14.8612C13.5472 14.8569 13.5472 14.8527 13.5472 14.8485C13.5472 14.8443 13.5472 14.8401 13.5472 14.8358C13.5472 14.8316 13.5472 14.8274 13.5472 14.8232C13.5472 14.819 13.5472 14.8148 13.5472 14.8106C13.5472 14.8063 13.5472 14.8021 13.5472 14.7979C13.5472 14.7937 13.5472 14.7895 13.5472 14.7853C13.5472 14.7811 13.5472 14.7769 13.5472 14.7727C13.5472 14.7685 13.5472 14.7644 13.5472 14.7602C13.5472 14.756 13.5472 14.7518 13.5472 14.7476C13.5472 14.7434 13.5472 14.7392 13.5472 14.7351C13.5472 14.7309 13.5472 14.7267 13.5472 14.7225C13.5472 14.7184 13.5472 14.7142 13.5472 14.71C13.5472 14.7059 13.5472 14.7017 13.5472 14.6975C13.5472 14.6934 13.5472 14.6892 13.5472 14.685C13.5472 14.6809 13.5472 14.6767 13.5472 14.6726C13.5472 14.6684 13.5472 14.6643 13.5472 14.6601C13.5472 14.656 13.5472 14.6518 13.5472 14.6477C13.5472 14.6436 13.5472 14.6394 13.5472 14.6353C13.5472 14.6311 13.5472 14.627 13.5472 14.6229C13.5472 14.6187 13.5472 14.6146 13.5472 14.6105C13.5472 14.6064 13.5472 14.6022 13.5472 14.5981C13.5472 14.594 13.5472 14.5899 13.5472 14.5858C13.5472 14.5817 13.5472 14.5775 13.5472 14.5734C13.5472 14.5693 13.5472 14.5652 13.5472 14.5611C13.5472 14.557 13.5472 14.5529 13.5472 14.5488C13.5472 14.5447 13.5472 14.5406 13.5472 14.5365C13.5472 14.5324 13.5472 14.5283 13.5472 14.5243C13.5472 14.5202 13.5472 14.5161 13.5472 14.512C13.5472 14.5079 13.5472 14.5038 13.5472 14.4998C13.5472 14.4957 13.5472 14.4916 13.5472 14.4875C13.5472 14.4835 13.5472 14.4794 13.5472 14.4753C13.5472 14.4713 13.5472 14.4672 13.5472 14.4632C13.5472 14.4591 13.5472 14.455 13.5472 14.451C13.5472 14.4469 13.5472 14.4429 13.5472 14.4388C13.5472 14.4348 13.5472 14.4307 13.5472 14.4267C13.5472 14.4227 13.5472 14.4186 13.5472 14.4146C13.5472 14.4106 13.5472 14.4065 13.5472 14.4025C13.5472 14.3985 13.5472 14.3944 13.5472 14.3904C13.5472 14.3864 13.5472 14.3824 13.5472 14.3784C13.5472 14.3743 13.5472 14.3703 13.5472 14.3663C13.5472 14.3623 13.5472 14.3583 13.5472 14.3543C13.5472 14.3503 13.5472 14.3463 13.5472 14.3423C13.5472 14.3383 13.5472 14.3343 13.5472 14.3303C13.5472 14.3263 13.5472 14.3223 13.5472 14.3183C13.5472 14.3143 13.5472 14.3103 13.5472 14.3063C13.5472 14.3024 13.5472 14.2984 13.5472 14.2944C13.5472 14.2904 13.5472 14.2865 13.5472 14.2825C13.5472 14.2785 13.5472 14.2746 13.5472 14.2706C13.5472 14.2666 13.5472 14.2627 13.5472 14.2587C13.5472 14.2548 13.5472 14.2508 13.5472 14.2469C13.5472 14.2429 13.5472 14.239 13.5472 14.235C13.5472 14.2311 13.5472 14.2271 13.5472 14.2232C13.5472 14.2192 13.5472 14.2153 13.5472 14.2114C13.5472 14.2074 13.5472 14.2035 13.5472 14.1996C13.5472 14.1957 13.5472 14.1917 13.5472 14.1878C13.5472 14.1839 13.5472 14.18 13.5472 14.1761C13.5472 14.1722 13.5472 14.1682 13.5472 14.1643C13.5472 14.1604 13.5472 14.1565 13.5472 14.1526C13.5472 14.1487 13.5472 14.1448 13.5472 14.1409C13.5472 14.137 13.5472 14.1332 13.5472 14.1293C13.5472 14.1254 13.5472 14.1215 13.5472 14.1176C13.5472 14.1137 13.5472 14.1099 13.5472 14.106C13.5472 14.1021 13.5472 14.0982 13.5472 14.0944C13.5472 14.0905 13.5472 14.0866 13.5472 14.0828C13.5472 14.0789 13.5472 14.075 13.5472 14.0712C13.5472 14.0673 13.5472 14.0635 13.5472 14.0596C13.5472 14.0558 13.5472 14.0519 13.5472 14.0481C13.5472 14.0443 13.5472 14.0404 13.5472 14.0366C13.5472 14.0328 13.5472 14.0289 13.5472 14.0251C13.5472 14.0213 13.5472 14.0174 13.5472 14.0136C13.5472 14.0098 13.5472 14.006 13.5472 14.0022C13.5472 13.9984 13.5472 13.9945 13.5472 13.9907C13.5472 13.9869 13.5472 13.9831 13.5472 13.9793C13.5472 13.9755 13.5472 13.9717 13.5472 13.9679C13.5472 13.9641 13.5472 13.9603 13.5472 13.9566C13.5472 13.9528 13.5472 13.949 13.5472 13.9452C13.5472 13.9414 13.5472 13.9377 13.5472 13.9339C13.5472 13.9301 13.5472 13.9263 13.5472 13.9226C13.5472 13.9188 13.5472 13.915 13.5472 13.9113C13.5472 13.9075 13.5472 13.9038 13.5472 13.9C13.5472 13.8963 13.5472 13.8925 13.5472 13.8888C13.5472 13.885 13.5472 13.8813 13.5472 13.8775C13.5472 13.8738 13.5472 13.8701 13.5472 13.8663C13.5472 13.8626 13.5472 13.8589 13.5472 13.8552C13.5472 13.8514 13.5472 13.8477 13.5472 13.844C13.5472 13.8403 13.5472 13.8366 13.5472 13.8329C13.5472 13.8291 13.5472 13.8254 13.5472 13.8217C13.5472 13.818 13.5472 13.8143 13.5472 13.8106C13.5472 13.807 13.5472 13.8033 13.5472 13.7996C13.5472 13.7959 13.5472 13.7922 13.5472 13.7885C13.5472 13.7848 13.5472 13.7812 13.5472 13.7775C13.5472 13.7738 13.5472 13.7701 13.5472 13.7665C13.5472 13.7628 13.5472 13.7592 13.5472 13.7555C13.5472 13.7518 13.5472 13.7482 13.5472 13.7445C13.5472 13.7409 13.5472 13.7372 13.5472 13.7336C13.5472 13.7299 13.5472 13.7263 13.5472 13.7227C13.5472 13.719 13.5472 13.7154 13.5472 13.7118C13.5472 13.7081 13.5472 13.7045 13.5472 13.7009C13.5472 13.6973 13.5472 13.6937 13.5472 13.69C13.5472 13.6864 13.5472 13.6828 13.5472 13.6792C13.5472 13.6756 13.5472 13.672 13.5472 13.6684C13.5472 13.6648 13.5472 13.6612 13.5472 13.6576C13.5472 13.654 13.5472 13.6504 13.5472 13.6469C13.5472 13.6433 13.5472 13.6397 13.5472 13.6361C13.5472 13.6326 13.5472 13.629 13.5472 13.6254C13.5472 13.6218 13.5472 13.6183 13.5472 13.6147C13.5472 13.6112 13.5472 13.6076 13.5472 13.604C13.5472 13.6005 13.5472 13.5969 13.5472 13.5934C13.5472 13.5899 13.5472 13.5863 13.5472 13.5828C13.5472 13.5792 13.5472 13.5757 13.5472 13.5722C13.5472 13.5687 13.5472 13.5651 13.5472 13.5616H10.5472C10.5472 13.5651 10.5472 13.5687 10.5472 13.5722C10.5472 13.5757 10.5472 13.5792 10.5472 13.5828C10.5472 13.5863 10.5472 13.5899 10.5472 13.5934C10.5472 13.5969 10.5472 13.6005 10.5472 13.604C10.5472 13.6076 10.5472 13.6112 10.5472 13.6147C10.5472 13.6183 10.5472 13.6218 10.5472 13.6254C10.5472 13.629 10.5472 13.6326 10.5472 13.6361C10.5472 13.6397 10.5472 13.6433 10.5472 13.6469C10.5472 13.6504 10.5472 13.654 10.5472 13.6576C10.5472 13.6612 10.5472 13.6648 10.5472 13.6684C10.5472 13.672 10.5472 13.6756 10.5472 13.6792C10.5472 13.6828 10.5472 13.6864 10.5472 13.69C10.5472 13.6937 10.5472 13.6973 10.5472 13.7009C10.5472 13.7045 10.5472 13.7081 10.5472 13.7118C10.5472 13.7154 10.5472 13.719 10.5472 13.7227C10.5472 13.7263 10.5472 13.7299 10.5472 13.7336C10.5472 13.7372 10.5472 13.7409 10.5472 13.7445C10.5472 13.7482 10.5472 13.7518 10.5472 13.7555C10.5472 13.7592 10.5472 13.7628 10.5472 13.7665C10.5472 13.7701 10.5472 13.7738 10.5472 13.7775C10.5472 13.7812 10.5472 13.7848 10.5472 13.7885C10.5472 13.7922 10.5472 13.7959 10.5472 13.7996C10.5472 13.8033 10.5472 13.807 10.5472 13.8106C10.5472 13.8143 10.5472 13.818 10.5472 13.8217C10.5472 13.8254 10.5472 13.8291 10.5472 13.8329C10.5472 13.8366 10.5472 13.8403 10.5472 13.844C10.5472 13.8477 10.5472 13.8514 10.5472 13.8552C10.5472 13.8589 10.5472 13.8626 10.5472 13.8663C10.5472 13.8701 10.5472 13.8738 10.5472 13.8775C10.5472 13.8813 10.5472 13.885 10.5472 13.8888C10.5472 13.8925 10.5472 13.8963 10.5472 13.9C10.5472 13.9038 10.5472 13.9075 10.5472 13.9113C10.5472 13.915 10.5472 13.9188 10.5472 13.9226C10.5472 13.9263 10.5472 13.9301 10.5472 13.9339C10.5472 13.9377 10.5472 13.9414 10.5472 13.9452C10.5472 13.949 10.5472 13.9528 10.5472 13.9566C10.5472 13.9603 10.5472 13.9641 10.5472 13.9679C10.5472 13.9717 10.5472 13.9755 10.5472 13.9793C10.5472 13.9831 10.5472 13.9869 10.5472 13.9907C10.5472 13.9945 10.5472 13.9984 10.5472 14.0022C10.5472 14.006 10.5472 14.0098 10.5472 14.0136C10.5472 14.0174 10.5472 14.0213 10.5472 14.0251C10.5472 14.0289 10.5472 14.0328 10.5472 14.0366C10.5472 14.0404 10.5472 14.0443 10.5472 14.0481C10.5472 14.0519 10.5472 14.0558 10.5472 14.0596C10.5472 14.0635 10.5472 14.0673 10.5472 14.0712C10.5472 14.075 10.5472 14.0789 10.5472 14.0828C10.5472 14.0866 10.5472 14.0905 10.5472 14.0944C10.5472 14.0982 10.5472 14.1021 10.5472 14.106C10.5472 14.1099 10.5472 14.1137 10.5472 14.1176C10.5472 14.1215 10.5472 14.1254 10.5472 14.1293C10.5472 14.1332 10.5472 14.137 10.5472 14.1409C10.5472 14.1448 10.5472 14.1487 10.5472 14.1526C10.5472 14.1565 10.5472 14.1604 10.5472 14.1643C10.5472 14.1682 10.5472 14.1722 10.5472 14.1761C10.5472 14.18 10.5472 14.1839 10.5472 14.1878C10.5472 14.1917 10.5472 14.1957 10.5472 14.1996C10.5472 14.2035 10.5472 14.2074 10.5472 14.2114C10.5472 14.2153 10.5472 14.2192 10.5472 14.2232C10.5472 14.2271 10.5472 14.2311 10.5472 14.235C10.5472 14.239 10.5472 14.2429 10.5472 14.2469C10.5472 14.2508 10.5472 14.2548 10.5472 14.2587C10.5472 14.2627 10.5472 14.2666 10.5472 14.2706C10.5472 14.2746 10.5472 14.2785 10.5472 14.2825C10.5472 14.2865 10.5472 14.2904 10.5472 14.2944C10.5472 14.2984 10.5472 14.3024 10.5472 14.3063C10.5472 14.3103 10.5472 14.3143 10.5472 14.3183C10.5472 14.3223 10.5472 14.3263 10.5472 14.3303C10.5472 14.3343 10.5472 14.3383 10.5472 14.3423C10.5472 14.3463 10.5472 14.3503 10.5472 14.3543C10.5472 14.3583 10.5472 14.3623 10.5472 14.3663C10.5472 14.3703 10.5472 14.3743 10.5472 14.3784C10.5472 14.3824 10.5472 14.3864 10.5472 14.3904C10.5472 14.3944 10.5472 14.3985 10.5472 14.4025C10.5472 14.4065 10.5472 14.4106 10.5472 14.4146C10.5472 14.4186 10.5472 14.4227 10.5472 14.4267C10.5472 14.4307 10.5472 14.4348 10.5472 14.4388C10.5472 14.4429 10.5472 14.4469 10.5472 14.451C10.5472 14.455 10.5472 14.4591 10.5472 14.4632C10.5472 14.4672 10.5472 14.4713 10.5472 14.4753C10.5472 14.4794 10.5472 14.4835 10.5472 14.4875C10.5472 14.4916 10.5472 14.4957 10.5472 14.4998C10.5472 14.5038 10.5472 14.5079 10.5472 14.512C10.5472 14.5161 10.5472 14.5202 10.5472 14.5243C10.5472 14.5283 10.5472 14.5324 10.5472 14.5365C10.5472 14.5406 10.5472 14.5447 10.5472 14.5488C10.5472 14.5529 10.5472 14.557 10.5472 14.5611C10.5472 14.5652 10.5472 14.5693 10.5472 14.5734C10.5472 14.5775 10.5472 14.5817 10.5472 14.5858C10.5472 14.5899 10.5472 14.594 10.5472 14.5981C10.5472 14.6022 10.5472 14.6064 10.5472 14.6105C10.5472 14.6146 10.5472 14.6187 10.5472 14.6229C10.5472 14.627 10.5472 14.6311 10.5472 14.6353C10.5472 14.6394 10.5472 14.6436 10.5472 14.6477C10.5472 14.6518 10.5472 14.656 10.5472 14.6601C10.5472 14.6643 10.5472 14.6684 10.5472 14.6726C10.5472 14.6767 10.5472 14.6809 10.5472 14.685C10.5472 14.6892 10.5472 14.6934 10.5472 14.6975C10.5472 14.7017 10.5472 14.7059 10.5472 14.71C10.5472 14.7142 10.5472 14.7184 10.5472 14.7225C10.5472 14.7267 10.5472 14.7309 10.5472 14.7351C10.5472 14.7392 10.5472 14.7434 10.5472 14.7476C10.5472 14.7518 10.5472 14.756 10.5472 14.7602C10.5472 14.7644 10.5472 14.7685 10.5472 14.7727C10.5472 14.7769 10.5472 14.7811 10.5472 14.7853C10.5472 14.7895 10.5472 14.7937 10.5472 14.7979C10.5472 14.8021 10.5472 14.8063 10.5472 14.8106C10.5472 14.8148 10.5472 14.819 10.5472 14.8232C10.5472 14.8274 10.5472 14.8316 10.5472 14.8358C10.5472 14.8401 10.5472 14.8443 10.5472 14.8485C10.5472 14.8527 10.5472 14.8569 10.5472 14.8612C10.5472 14.8654 10.5472 14.8696 10.5472 14.8739C10.5472 14.8781 10.5472 14.8823 10.5472 14.8866C10.5472 14.8908 10.5472 14.8951 10.5472 14.8993C10.5472 14.9035 10.5472 14.9078 10.5472 14.912C10.5472 14.9163 10.5472 14.9205 10.5472 14.9248C10.5472 14.929 10.5472 14.9333 10.5472 14.9376C10.5472 14.9418 10.5472 14.9461 10.5472 14.9503C10.5472 14.9546 10.5472 14.9589 10.5472 14.9631C10.5472 14.9674 10.5472 14.9717 10.5472 14.9759C10.5472 14.9802 10.5472 14.9845 10.5472 14.9888C10.5472 14.993 10.5472 14.9973 10.5472 15.0016C10.5472 15.0059 10.5472 15.0101 10.5472 15.0144C10.5472 15.0187 10.5472 15.023 10.5472 15.0273C10.5472 15.0316 10.5472 15.0359 10.5472 15.0402C10.5472 15.0445 10.5472 15.0488 10.5472 15.0531C10.5472 15.0574 10.5472 15.0617 10.5472 15.066C10.5472 15.0703 10.5472 15.0746 10.5472 15.0789C10.5472 15.0832 10.5472 15.0875 10.5472 15.0918C10.5472 15.0961 10.5472 15.1004 10.5472 15.1048C10.5472 15.1091 10.5472 15.1134 10.5472 15.1177C10.5472 15.122 10.5472 15.1264 10.5472 15.1307C10.5472 15.135 10.5472 15.1393 10.5472 15.1437C10.5472 15.148 10.5472 15.1523 10.5472 15.1567C10.5472 15.161 10.5472 15.1653 10.5472 15.1697C10.5472 15.174 10.5472 15.1783 10.5472 15.1827C10.5472 15.187 10.5472 15.1914 10.5472 15.1957C10.5472 15.2001 10.5472 15.2044 10.5472 15.2088C10.5472 15.2131 10.5472 15.2175 10.5472 15.2218C10.5472 15.2262 10.5472 15.2305 10.5472 15.2349C10.5472 15.2392 10.5472 15.2436 10.5472 15.248C10.5472 15.2523 10.5472 15.2567 10.5472 15.2611C10.5472 15.2654 10.5472 15.2698 10.5472 15.2742C10.5472 15.2785 10.5472 15.2829 10.5472 15.2873C10.5472 15.2917 10.5472 15.296 10.5472 15.3004C10.5472 15.3048 10.5472 15.3092 10.5472 15.3136C10.5472 15.3179 10.5472 15.3223 10.5472 15.3267C10.5472 15.3311 10.5472 15.3355 10.5472 15.3399C10.5472 15.3443 10.5472 15.3487 10.5472 15.353C10.5472 15.3574 10.5472 15.3618 10.5472 15.3662C10.5472 15.3706 10.5472 15.375 10.5472 15.3794C10.5472 15.3838 10.5472 15.3882 10.5472 15.3926C10.5472 15.3971 10.5472 15.4015 10.5472 15.4059C10.5472 15.4103 10.5472 15.4147 10.5472 15.4191C10.5472 15.4235 10.5472 15.4279 10.5472 15.4323C10.5472 15.4368 10.5472 15.4412 10.5472 15.4456C10.5472 15.45 10.5472 15.4544 10.5472 15.4589C10.5472 15.4633 10.5472 15.4677 10.5472 15.4721C10.5472 15.4766 10.5472 15.481 10.5472 15.4854C10.5472 15.4899 10.5472 15.4943 10.5472 15.4987C10.5472 15.5032 10.5472 15.5076 10.5472 15.512C10.5472 15.5165 10.5472 15.5209 10.5472 15.5254C10.5472 15.5298 10.5472 15.5342 10.5472 15.5387C10.5472 15.5431 10.5472 15.5476 10.5472 15.552C10.5472 15.5565 10.5472 15.5609 10.5472 15.5654C10.5472 15.5698 10.5472 15.5743 10.5472 15.5787C10.5472 15.5832 10.5472 15.5877 10.5472 15.5921C10.5472 15.5966 10.5472 15.601 10.5472 15.6055C10.5472 15.61 10.5472 15.6144 10.5472 15.6189C10.5472 15.6234 10.5472 15.6278 10.5472 15.6323C10.5472 15.6368 10.5472 15.6412 10.5472 15.6457C10.5472 15.6502 10.5472 15.6547 10.5472 15.6591C10.5472 15.6636 10.5472 15.6681 10.5472 15.6726C10.5472 15.677 10.5472 15.6815 10.5472 15.686C10.5472 15.6905 10.5472 15.695 10.5472 15.6994C10.5472 15.7039 10.5472 15.7084 10.5472 15.7129C10.5472 15.7174 10.5472 15.7219 10.5472 15.7264C10.5472 15.7309 10.5472 15.7354 10.5472 15.7399C10.5472 15.7443 10.5472 15.7488 10.5472 15.7533C10.5472 15.7578 10.5472 15.7623 10.5472 15.7668C10.5472 15.7713 10.5472 15.7758 10.5472 15.7803C10.5472 15.7848 10.5472 15.7894 10.5472 15.7939C10.5472 15.7984 10.5472 15.8029 10.5472 15.8074C10.5472 15.8119 10.5472 15.8164 10.5472 15.8209C10.5472 15.8254 10.5472 15.8299 10.5472 15.8345C10.5472 15.839 10.5472 15.8435 10.5472 15.848C10.5472 15.8525 10.5472 15.857 10.5472 15.8616C10.5472 15.8661 10.5472 15.8706 10.5472 15.8751C10.5472 15.8797 10.5472 15.8842 10.5472 15.8887C10.5472 15.8932 10.5472 15.8978 10.5472 15.9023C10.5472 15.9068 10.5472 15.9113 10.5472 15.9159C10.5472 15.9204 10.5472 15.9249 10.5472 15.9295C10.5472 15.934 10.5472 15.9385 10.5472 15.9431C10.5472 15.9476 10.5472 15.9522 10.5472 15.9567C10.5472 15.9612 10.5472 15.9658 10.5472 15.9703C10.5472 15.9749 10.5472 15.9794 10.5472 15.9839C10.5472 15.9885 10.5472 15.993 10.5472 15.9976C10.5472 16.0021 10.5472 16.0067 10.5472 16.0112C10.5472 16.0158 10.5472 16.0203 10.5472 16.0249C10.5472 16.0294 10.5472 16.034 10.5472 16.0385C10.5472 16.0431 10.5472 16.0477 10.5472 16.0522C10.5472 16.0568 10.5472 16.0613 10.5472 16.0659C10.5472 16.0705 10.5472 16.075 10.5472 16.0796C10.5472 16.0841 10.5472 16.0887 10.5472 16.0933C10.5472 16.0978 10.5472 16.1024 10.5472 16.107C10.5472 16.1115 10.5472 16.1161 10.5472 16.1207C10.5472 16.1252 10.5472 16.1298 10.5472 16.1344C10.5472 16.139 10.5472 16.1435 10.5472 16.1481C10.5472 16.1527 10.5472 16.1572 10.5472 16.1618C10.5472 16.1664 10.5472 16.171 10.5472 16.1756C10.5472 16.1801 10.5472 16.1847 10.5472 16.1893C10.5472 16.1939 10.5472 16.1985 10.5472 16.203C10.5472 16.2076 10.5472 16.2122 10.5472 16.2168C10.5472 16.2214 10.5472 16.226 10.5472 16.2305C10.5472 16.2351 10.5472 16.2397 10.5472 16.2443C10.5472 16.2489 10.5472 16.2535 10.5472 16.2581C10.5472 16.2627 10.5472 16.2673 10.5472 16.2719C10.5472 16.2764 10.5472 16.281 10.5472 16.2856C10.5472 16.2902 10.5472 16.2948 10.5472 16.2994C10.5472 16.304 10.5472 16.3086 10.5472 16.3132C10.5472 16.3178 10.5472 16.3224 10.5472 16.327C10.5472 16.3316 10.5472 16.3362 10.5472 16.3408C10.5472 16.3454 10.5472 16.35 10.5472 16.3546C10.5472 16.3592 10.5472 16.3638 10.5472 16.3684C10.5472 16.373 10.5472 16.3777 10.5472 16.3823C10.5472 16.3869 10.5472 16.3915 10.5472 16.3961C10.5472 16.4007 10.5472 16.4053 10.5472 16.4099C10.5472 16.4145 10.5472 16.4191 10.5472 16.4238C10.5472 16.4284 10.5472 16.433 10.5472 16.4376C10.5472 16.4422 10.5472 16.4468 10.5472 16.4514C10.5472 16.4561 10.5472 16.4607 10.5472 16.4653C10.5472 16.4699 10.5472 16.4745 10.5472 16.4792C10.5472 16.4838 10.5472 16.4884 10.5472 16.493C10.5472 16.4976 10.5472 16.5023 10.5472 16.5069C10.5472 16.5115 10.5472 16.5161 10.5472 16.5208C10.5472 16.5254 10.5472 16.53 10.5472 16.5346C10.5472 16.5393 10.5472 16.5439 10.5472 16.5485C10.5472 16.5531 10.5472 16.5578 10.5472 16.5624C10.5472 16.567 10.5472 16.5717 10.5472 16.5763C10.5472 16.5809 10.5472 16.5855 10.5472 16.5902C10.5472 16.5948 10.5472 16.5994 10.5472 16.6041C10.5472 16.6087 10.5472 16.6133 10.5472 16.618C10.5472 16.6226 10.5472 16.6272 10.5472 16.6319C10.5472 16.6365 10.5472 16.6412 10.5472 16.6458C10.5472 16.6504 10.5472 16.6551 10.5472 16.6597C10.5472 16.6643 10.5472 16.669 10.5472 16.6736C10.5472 16.6783 10.5472 16.6829 10.5472 16.6875C10.5472 16.6922 10.5472 16.6968 10.5472 16.7015C10.5472 16.7061 10.5472 16.7108 10.5472 16.7154C10.5472 16.72 10.5472 16.7247 10.5472 16.7293C10.5472 16.734 10.5472 16.7386 10.5472 16.7433C10.5472 16.7479 10.5472 16.7526 10.5472 16.7572C10.5472 16.7618 10.5472 16.7665 10.5472 16.7711C10.5472 16.7758 10.5472 16.7804 10.5472 16.7851C10.5472 16.7897 10.5472 16.7944 10.5472 16.799C10.5472 16.8037 10.5472 16.8083 10.5472 16.813C10.5472 16.8176 10.5472 16.8223 10.5472 16.8269C10.5472 16.8316 10.5472 16.8362 10.5472 16.8409C10.5472 16.8455 10.5472 16.8502 10.5472 16.8548C10.5472 16.8595 10.5472 16.8641 10.5472 16.8688C10.5472 16.8735 10.5472 16.8781 10.5472 16.8828C10.5472 16.8874 10.5472 16.8921 10.5472 16.8967C10.5472 16.9014 10.5472 16.906 10.5472 16.9107C10.5472 16.9154 10.5472 16.92 10.5472 16.9247C10.5472 16.9293 10.5472 16.934 10.5472 16.9386C10.5472 16.9433 10.5472 16.948 10.5472 16.9526C10.5472 16.9573 10.5472 16.9619 10.5472 16.9666C10.5472 16.9712 10.5472 16.9759 10.5472 16.9806C10.5472 16.9852 10.5472 16.9899 10.5472 16.9945C10.5472 16.9992 10.5472 17.0039 10.5472 17.0085C10.5472 17.0132 10.5472 17.0179 10.5472 17.0225C10.5472 17.0272 10.5472 17.0318 10.5472 17.0365C10.5472 17.0412 10.5472 17.0458 10.5472 17.0505C10.5472 17.0551 10.5472 17.0598 10.5472 17.0645C10.5472 17.0691 10.5472 17.0738 10.5472 17.0785C10.5472 17.0831 10.5472 17.0878 10.5472 17.0925C10.5472 17.0971 10.5472 17.1018 10.5472 17.1064C10.5472 17.1111 10.5472 17.1158 10.5472 17.1204C10.5472 17.1251 10.5472 17.1298 10.5472 17.1344C10.5472 17.1391 10.5472 17.1438 10.5472 17.1484C10.5472 17.1531 10.5472 17.1578 10.5472 17.1624C10.5472 17.1671 10.5472 17.1718 10.5472 17.1764C10.5472 17.1811 10.5472 17.1858 10.5472 17.1904C10.5472 17.1951 10.5472 17.1997 10.5472 17.2044C10.5472 17.2091 10.5472 17.2137 10.5472 17.2184C10.5472 17.2231 10.5472 17.2277 10.5472 17.2324C10.5472 17.2371 10.5472 17.2417 10.5472 17.2464C10.5472 17.2511 10.5472 17.2557 10.5472 17.2604C10.5472 17.2651 10.5472 17.2697 10.5472 17.2744C10.5472 17.2791 10.5472 17.2837 10.5472 17.2884C10.5472 17.2931 10.5472 17.2977 10.5472 17.3024C10.5472 17.3071 10.5472 17.3117 10.5472 17.3164C10.5472 17.3211 10.5472 17.3257 10.5472 17.3304C10.5472 17.3351 10.5472 17.3397 10.5472 17.3444C10.5472 17.3491 10.5472 17.3537 10.5472 17.3584C10.5472 17.3631 10.5472 17.3677 10.5472 17.3724C10.5472 17.3771 10.5472 17.3817 10.5472 17.3864C10.5472 17.3911 10.5472 17.3957 10.5472 17.4004C10.5472 17.4051 10.5472 17.4097 10.5472 17.4144C10.5472 17.4191 10.5472 17.4237 10.5472 17.4284C10.5472 17.4331 10.5472 17.4377 10.5472 17.4424C10.5472 17.4471 10.5472 17.4517 10.5472 17.4564C10.5472 17.4611 10.5472 17.4657 10.5472 17.4704C10.5472 17.4751 10.5472 17.4797 10.5472 17.4844C10.5472 17.4891 10.5472 17.4937 10.5472 17.4984C10.5472 17.503 10.5472 17.5077 10.5472 17.5124C10.5472 17.517 10.5472 17.5217 10.5472 17.5264C10.5472 17.531 10.5472 17.5357 10.5472 17.5404C10.5472 17.545 10.5472 17.5497 10.5472 17.5543C10.5472 17.559 10.5472 17.5637 10.5472 17.5683C10.5472 17.573 10.5472 17.5777 10.5472 17.5823C10.5472 17.587 10.5472 17.5916 10.5472 17.5963C10.5472 17.601 10.5472 17.6056 10.5472 17.6103C10.5472 17.6149 10.5472 17.6196 10.5472 17.6243C10.5472 17.6289 10.5472 17.6336 10.5472 17.6382C10.5472 17.6429 10.5472 17.6476 10.5472 17.6522C10.5472 17.6569 10.5472 17.6615 10.5472 17.6662C10.5472 17.6708 10.5472 17.6755 10.5472 17.6802C10.5472 17.6848 10.5472 17.6895 10.5472 17.6941C10.5472 17.6988 10.5472 17.7034 10.5472 17.7081C10.5472 17.7127 10.5472 17.7174 10.5472 17.7221C10.5472 17.7267 10.5472 17.7314 10.5472 17.736C10.5472 17.7407 10.5472 17.7453 10.5472 17.75C10.5472 17.7546 10.5472 17.7593 10.5472 17.7639C10.5472 17.7686 10.5472 17.7732 10.5472 17.7779C10.5472 17.7825 10.5472 17.7872 10.5472 17.7918C10.5472 17.7965 10.5472 17.8011 10.5472 17.8058C10.5472 17.8104 10.5472 17.8151 10.5472 17.8197C10.5472 17.8244 10.5472 17.829 10.5472 17.8337C10.5472 17.8383 10.5472 17.843 10.5472 17.8476C10.5472 17.8523 10.5472 17.8569 10.5472 17.8616C10.5472 17.8662 10.5472 17.8708 10.5472 17.8755C10.5472 17.8801 10.5472 17.8848 10.5472 17.8894C10.5472 17.8941 10.5472 17.8987 10.5472 17.9033C10.5472 17.908 10.5472 17.9126 10.5472 17.9173C10.5472 17.9219 10.5472 17.9265 10.5472 17.9312C10.5472 17.9358 10.5472 17.9405 10.5472 17.9451C10.5472 17.9497 10.5472 17.9544 10.5472 17.959C10.5472 17.9637 10.5472 17.9683 10.5472 17.9729C10.5472 17.9776 10.5472 17.9822 10.5472 17.9868C10.5472 17.9915 10.5472 17.9961 10.5472 18.0007C10.5472 18.0054 10.5472 18.01 10.5472 18.0146C10.5472 18.0193 10.5472 18.0239 10.5472 18.0285C10.5472 18.0331 10.5472 18.0378 10.5472 18.0424C10.5472 18.047 10.5472 18.0517 10.5472 18.0563C10.5472 18.0609 10.5472 18.0655 10.5472 18.0702C10.5472 18.0748 10.5472 18.0794 10.5472 18.084C10.5472 18.0887 10.5472 18.0933 10.5472 18.0979C10.5472 18.1025 10.5472 18.1072 10.5472 18.1118C10.5472 18.1164 10.5472 18.121 10.5472 18.1256C10.5472 18.1303 10.5472 18.1349 10.5472 18.1395C10.5472 18.1441 10.5472 18.1487 10.5472 18.1533C10.5472 18.158 10.5472 18.1626 10.5472 18.1672C10.5472 18.1718 10.5472 18.1764 10.5472 18.181C10.5472 18.1856 10.5472 18.1903 10.5472 18.1949C10.5472 18.1995 10.5472 18.2041 10.5472 18.2087C10.5472 18.2133 10.5472 18.2179 10.5472 18.2225C10.5472 18.2271 10.5472 18.2317 10.5472 18.2363C10.5472 18.241 10.5472 18.2456 10.5472 18.2502C10.5472 18.2548 10.5472 18.2594 10.5472 18.264C10.5472 18.2686 10.5472 18.2732 10.5472 18.2778C10.5472 18.2824 10.5472 18.287 10.5472 18.2916C10.5472 18.2962 10.5472 18.3008 10.5472 18.3054C10.5472 18.31 10.5472 18.3146 10.5472 18.3192C10.5472 18.3237 10.5472 18.3283 10.5472 18.3329C10.5472 18.3375 10.5472 18.3421 10.5472 18.3467C10.5472 18.3513 10.5472 18.3559 10.5472 18.3605C10.5472 18.3651 10.5472 18.3696 10.5472 18.3742C10.5472 18.3788 10.5472 18.3834 10.5472 18.388C10.5472 18.3926 10.5472 18.3972 10.5472 18.4017C10.5472 18.4063 10.5472 18.4109 10.5472 18.4155C10.5472 18.4201 10.5472 18.4246 10.5472 18.4292C10.5472 18.4338 10.5472 18.4384 10.5472 18.443C10.5472 18.4475 10.5472 18.4521 10.5472 18.4567C10.5472 18.4612 10.5472 18.4658 10.5472 18.4704C10.5472 18.475 10.5472 18.4795 10.5472 18.4841C10.5472 18.4887 10.5472 18.4932 10.5472 18.4978C10.5472 18.5024 10.5472 18.5069 10.5472 18.5115C10.5472 18.5161 10.5472 18.5206 10.5472 18.5252C10.5472 18.5297 10.5472 18.5343 10.5472 18.5389C10.5472 18.5434 10.5472 18.548 10.5472 18.5525C10.5472 18.5571 10.5472 18.5617 10.5472 18.5662C10.5472 18.5708 10.5472 18.5753 10.5472 18.5799C10.5472 18.5844 10.5472 18.589 10.5472 18.5935C10.5472 18.5981 10.5472 18.6026 10.5472 18.6072C10.5472 18.6117 10.5472 18.6163 10.5472 18.6208C10.5472 18.6253 10.5472 18.6299 10.5472 18.6344C10.5472 18.639 10.5472 18.6435 10.5472 18.6481C10.5472 18.6526 10.5472 18.6571 10.5472 18.6617C10.5472 18.6662 10.5472 18.6707 10.5472 18.6753C10.5472 18.6798 10.5472 18.6843 10.5472 18.6889C10.5472 18.6934 10.5472 18.6979 10.5472 18.7025C10.5472 18.707 10.5472 18.7115 10.5472 18.716C10.5472 18.7206 10.5472 18.7251 10.5472 18.7296C10.5472 18.7341 10.5472 18.7387 10.5472 18.7432C10.5472 18.7477 10.5472 18.7522 10.5472 18.7567C10.5472 18.7612 10.5472 18.7658 10.5472 18.7703C10.5472 18.7748 10.5472 18.7793 10.5472 18.7838C10.5472 18.7883 10.5472 18.7928 10.5472 18.7973C10.5472 18.8019 10.5472 18.8064 10.5472 18.8109C10.5472 18.8154 10.5472 18.8199 10.5472 18.8244C10.5472 18.8289 10.5472 18.8334 10.5472 18.8379C10.5472 18.8424 10.5472 18.8469 10.5472 18.8514C10.5472 18.8559 10.5472 18.8604 10.5472 18.8649C10.5472 18.8694 10.5472 18.8739 10.5472 18.8783C10.5472 18.8828 10.5472 18.8873 10.5472 18.8918C10.5472 18.8963 10.5472 18.9008 10.5472 18.9053C10.5472 18.9097 10.5472 18.9142 10.5472 18.9187C10.5472 18.9232 10.5472 18.9277 10.5472 18.9322C10.5472 18.9366 10.5472 18.9411 10.5472 18.9456C10.5472 18.9501 10.5472 18.9545 10.5472 18.959C10.5472 18.9635 10.5472 18.9679 10.5472 18.9724C10.5472 18.9769 10.5472 18.9813 10.5472 18.9858C10.5472 18.9903 10.5472 18.9947 10.5472 18.9992C10.5472 19.0037 10.5472 19.0081 10.5472 19.0126C10.5472 19.017 10.5472 19.0215 10.5472 19.0259C10.5472 19.0304 10.5472 19.0349 10.5472 19.0393C10.5472 19.0438 10.5472 19.0482 10.5472 19.0527C10.5472 19.0571 10.5472 19.0616 10.5472 19.066C10.5472 19.0704 10.5472 19.0749 10.5472 19.0793C10.5472 19.0838 10.5472 19.0882 10.5472 19.0926C10.5472 19.0971 10.5472 19.1015 10.5472 19.106C10.5472 19.1104 10.5472 19.1148 10.5472 19.1192C10.5472 19.1237 10.5472 19.1281 10.5472 19.1325C10.5472 19.137 10.5472 19.1414 10.5472 19.1458C10.5472 19.1502 10.5472 19.1547 10.5472 19.1591C10.5472 19.1635 10.5472 19.1679 10.5472 19.1723C10.5472 19.1767 10.5472 19.1812 10.5472 19.1856C10.5472 19.19 10.5472 19.1944 10.5472 19.1988C10.5472 19.2032 10.5472 19.2076 10.5472 19.212C10.5472 19.2164 10.5472 19.2208 10.5472 19.2252C10.5472 19.2296 10.5472 19.234 10.5472 19.2384C10.5472 19.2428 10.5472 19.2472 10.5472 19.2516C10.5472 19.256 10.5472 19.2604 10.5472 19.2648C10.5472 19.2692 10.5472 19.2736 10.5472 19.278C10.5472 19.2823 10.5472 19.2867 10.5472 19.2911C10.5472 19.2955 10.5472 19.2999 10.5472 19.3042C10.5472 19.3086 10.5472 19.313 10.5472 19.3174C10.5472 19.3217 10.5472 19.3261 10.5472 19.3305C10.5472 19.3349 10.5472 19.3392 10.5472 19.3436C10.5472 19.348 10.5472 19.3523 10.5472 19.3567C10.5472 19.361 10.5472 19.3654 10.5472 19.3698C10.5472 19.3741 10.5472 19.3785 10.5472 19.3828C10.5472 19.3872 10.5472 19.3915 10.5472 19.3959C10.5472 19.4002 10.5472 19.4046 10.5472 19.4089C10.5472 19.4133 10.5472 19.4176 10.5472 19.4219C10.5472 19.4263 10.5472 19.4306 10.5472 19.435C10.5472 19.4393 10.5472 19.4436 10.5472 19.448C10.5472 19.4523 10.5472 19.4566 10.5472 19.461C10.5472 19.4653 10.5472 19.4696 10.5472 19.4739C10.5472 19.4783 10.5472 19.4826 10.5472 19.4869C10.5472 19.4912 10.5472 19.4955 10.5472 19.4999C10.5472 19.5042 10.5472 19.5085 10.5472 19.5128C10.5472 19.5171 10.5472 19.5214 10.5472 19.5257C10.5472 19.53 10.5472 19.5343 10.5472 19.5386C10.5472 19.5429 10.5472 19.5472 10.5472 19.5515C10.5472 19.5558 10.5472 19.5601 10.5472 19.5644C10.5472 19.5687 10.5472 19.573 10.5472 19.5773C10.5472 19.5816 10.5472 19.5859 10.5472 19.5902C10.5472 19.5944 10.5472 19.5987 10.5472 19.603C10.5472 19.6073 10.5472 19.6116 10.5472 19.6158C10.5472 19.6201 10.5472 19.6244 10.5472 19.6287C10.5472 19.6329 10.5472 19.6372 10.5472 19.6415C10.5472 19.6457 10.5472 19.65 10.5472 19.6542C10.5472 19.6585 10.5472 19.6628 10.5472 19.667C10.5472 19.6713 10.5472 19.6755 10.5472 19.6798C10.5472 19.684 10.5472 19.6883 10.5472 19.6925C10.5472 19.6968 10.5472 19.701 10.5472 19.7053C10.5472 19.7095 10.5472 19.7137 10.5472 19.718C10.5472 19.7222 10.5472 19.7265 10.5472 19.7307C10.5472 19.7349 10.5472 19.7392 10.5472 19.7434C10.5472 19.7476 10.5472 19.7518 10.5472 19.7561C10.5472 19.7603 10.5472 19.7645 10.5472 19.7687C10.5472 19.7729 10.5472 19.7771 10.5472 19.7814C10.5472 19.7856 10.5472 19.7898 10.5472 19.794C10.5472 19.7982 10.5472 19.8024 10.5472 19.8066C10.5472 19.8108 10.5472 19.815 10.5472 19.8192C10.5472 19.8234 10.5472 19.8276 10.5472 19.8318C10.5472 19.836 10.5472 19.8402 10.5472 19.8444C10.5472 19.8486 10.5472 19.8527 10.5472 19.8569C10.5472 19.8611 10.5472 19.8653 10.5472 19.8695C10.5472 19.8736 10.5472 19.8778 10.5472 19.882C10.5472 19.8862 10.5472 19.8903 10.5472 19.8945C10.5472 19.8987 10.5472 19.9028 10.5472 19.907C10.5472 19.9111 10.5472 19.9153 10.5472 19.9195C10.5472 19.9236 10.5472 19.9278 10.5472 19.9319C10.5472 19.9361 10.5472 19.9402 10.5472 19.9444C10.5472 19.9485 10.5472 19.9527 10.5472 19.9568C10.5472 19.9609 10.5472 19.9651 10.5472 19.9692C10.5472 19.9734 10.5472 19.9775 10.5472 19.9816C10.5472 19.9857 10.5472 19.9899 10.5472 19.994C10.5472 19.9981 10.5472 20.0022 10.5472 20.0064C10.5472 20.0105 10.5472 20.0146 10.5472 20.0187C10.5472 20.0228 10.5472 20.0269 10.5472 20.031C10.5472 20.0352 10.5472 20.0393 10.5472 20.0434C10.5472 20.0475 10.5472 20.0516 10.5472 20.0557C10.5472 20.0598 10.5472 20.0639 10.5472 20.0679C10.5472 20.072 10.5472 20.0761 10.5472 20.0802C10.5472 20.0843 10.5472 20.0884 10.5472 20.0925C10.5472 20.0965 10.5472 20.1006 10.5472 20.1047C10.5472 20.1088 10.5472 20.1128 10.5472 20.1169C10.5472 20.121 10.5472 20.125 10.5472 20.1291C10.5472 20.1332 10.5472 20.1372 10.5472 20.1413C10.5472 20.1453 10.5472 20.1494 10.5472 20.1535C10.5472 20.1575 10.5472 20.1616 10.5472 20.1656C10.5472 20.1696 10.5472 20.1737 10.5472 20.1777C10.5472 20.1818 10.5472 20.1858 10.5472 20.1898C10.5472 20.1939 10.5472 20.1979 10.5472 20.2019C10.5472 20.206 10.5472 20.21 10.5472 20.214C10.5472 20.218 10.5472 20.2221 10.5472 20.2261C10.5472 20.2301 10.5472 20.2341 10.5472 20.2381C10.5472 20.2421 10.5472 20.2461 10.5472 20.2501H13.5472ZM27.5978 5.34644C26.4899 4.66606 24.6422 3.44067 22.9729 2.46652C22.119 1.96824 21.2467 1.49561 20.4477 1.14358C19.7012 0.814649 18.8235 0.5 18.0255 0.5V3.5C18.1525 3.5 18.537 3.58001 19.2382 3.88893C19.8869 4.17475 20.6478 4.58315 21.4609 5.05761C23.1254 6.02895 24.7464 7.11589 26.0278 7.90285L27.5978 5.34644ZM35.2493 19.1112C35.2493 18.7179 35.2904 18.0894 35.3446 17.2709C35.397 16.4812 35.4581 15.5578 35.4854 14.6578C35.5124 13.7674 35.5086 12.8401 35.4171 12.049C35.3714 11.6542 35.2986 11.2435 35.1744 10.8663C35.0588 10.515 34.8479 10.0326 34.4248 9.66047L32.4435 11.9132C32.2833 11.7723 32.2795 11.6665 32.3248 11.8043C32.3617 11.9162 32.4038 12.1072 32.437 12.3938C32.5031 12.9654 32.5125 13.7196 32.4868 14.5669C32.4614 15.4045 32.4041 16.2749 32.3512 17.0724C32.3002 17.841 32.2493 18.5931 32.2493 19.1112H35.2493ZM34.6281 29.032C34.9418 28.4053 35.0708 27.5143 35.145 26.7544C35.2267 25.9173 35.2637 24.9434 35.2783 23.9814C35.307 22.0965 35.2493 20.0138 35.2493 19.1112H32.2493C32.2493 20.1898 32.3076 22.0382 32.2787 23.9357C32.2645 24.8649 32.2293 25.7451 32.1592 26.4628C32.1241 26.8217 32.0824 27.1186 32.0358 27.3488C31.9855 27.5979 31.9446 27.6907 31.9455 27.689L34.6281 29.032ZM25.1708 34.7892C25.5334 34.6079 27.6907 33.6154 29.6737 32.5807C30.6858 32.0526 31.7228 31.4788 32.5641 30.9361C32.9833 30.6656 33.3816 30.3852 33.7131 30.1065C34.0069 29.8594 34.3969 29.4938 34.6281 29.032L31.9455 27.689C32.003 27.574 32.0171 27.613 31.7824 27.8103C31.5854 27.976 31.3026 28.1798 30.9377 28.4151C30.2108 28.8841 29.268 29.4086 28.2859 29.921C26.2803 30.9675 24.3915 31.8248 23.8292 32.1059L25.1708 34.7892ZM18.0255 38.6473C18.4648 38.6473 18.8807 38.4858 19.1033 38.3939C19.3871 38.2769 19.6976 38.122 20.0074 37.9555C20.6303 37.6207 21.3579 37.1802 22.0577 36.7429C22.7589 36.3046 23.4667 35.8476 24.0345 35.4856C24.6449 35.0965 25.027 34.8611 25.1708 34.7892L23.8292 32.1059C23.5105 32.2653 22.9677 32.608 22.4219 32.9559C21.8335 33.331 21.154 33.77 20.4677 34.1989C19.7801 34.6286 19.1203 35.0264 18.5871 35.313C18.3188 35.4572 18.109 35.5589 17.9593 35.6206C17.7483 35.7077 17.8173 35.6473 18.0255 35.6473V38.6473Z" fill="#252525"/>
<path d="M27.5163 16.3554C27.5163 14.4866 24.9626 13.5617 23.5752 13.5617C22.1878 13.5618 18.4881 12.6368 17.1007 14.9492C15.7133 17.2615 17.5631 18.9957 19.8755 19.5738C21.7254 20.0363 26.1537 19.3116 27.5163 20.9612C28.6623 22.3486 28.6627 24.1984 25.4251 25.5858C20.3383 26.9732 16.6238 25.7085 16.1758 22.8111" stroke="#252525" stroke-width="3" stroke-linecap="square"/>
</svg>
