<svg width="927" height="229" viewBox="0 0 927 229" fill="none" xmlns="http://www.w3.org/2000/svg">
<path d="M36.2986 102.134H5.28929C2.29784 91.1892 2.72564 68.6675 2.29784 56.6892C1.80004 42.7508 1.79871 19.6891 3.2979 6.68911C21.2758 5.72637 38.7986 5.18945 55.2979 5.18945C71.7971 5.18945 81.7692 10.3948 90.0339 18.6595C97.2478 25.8734 98.3162 36.3565 97.4076 45.8964C96.5098 55.3237 88.3549 60.9646 81.1431 65.442C81.1431 65.442 89.1244 79.0053 90.3867 81.53C91.2138 83.1842 102.299 101.689 101.799 102.189C101.299 102.689 81.8042 103.042 71.9701 102.769C71.9701 102.769 53.4424 78.2709 52.7986 71.189H38.7986C38.7986 76.189 38.2986 100.189 36.2986 102.134Z" fill="#C8B0E8" stroke="#C8B0E8" stroke-width="4"/>
<path d="M51.7979 51.1895C46.8876 51.1895 42.4821 50.9969 37.677 50.0593C37.677 42.9074 37.042 38.4731 37.042 31.3252C37.042 31.3252 55.4877 31.4074 57.8577 32.1367C63.3232 33.8183 65.2979 41.6895 62.2979 46.1895C60.7979 48.6895 56.6245 51.1895 51.7979 51.1895Z" stroke="#C8B0E8" stroke-width="4"/>
<path d="M174.298 52.741C174.298 59.2925 172.434 65.6895 171.798 68.1895C169 79.1895 150.798 76.6895 147.798 70.6895C145.256 65.6064 145.001 58.0828 145.001 52.741C145.001 45.0173 146.912 39.7802 151.951 33.901C155.903 29.2912 166.657 30.155 170.403 33.9011C174.722 38.2199 174.298 47.1674 174.298 52.741Z" stroke="#C8B0E8" stroke-width="4"/>
<path d="M205.967 48.5068C205.967 36.5037 203.025 20.5576 190.799 11.6893C178.572 2.82067 165.267 3.00361 154.299 3.68914C138.299 4.68915 122.909 15.5884 118.799 31.6891C114.403 48.9061 115.2 71.6891 125.799 86.1891C133.799 97.1337 148.299 102.134 165.289 102.134C177.299 102.134 189.524 97.7978 196.799 87.1891C203.792 76.9914 205.967 60.5181 205.967 48.5068Z" fill="#C8B0E8" stroke="#C8B0E8" stroke-width="4"/>
<path d="M263.299 55.6894C263.269 55.1173 259.276 40.216 259.276 40.216C259.276 40.216 257.299 69.1894 257.299 84.1894C257.123 85.6859 258.677 103.722 256.172 105.309C247.568 105.309 234.942 104.645 226.254 104.074C220.299 99.4526 223.749 62.1894 223.748 49.7066C223.748 34.6894 223.938 22.2411 226.253 7.19316C226.253 7.19316 243.298 5.4644 247.798 5.46464C257.994 5.46464 271.798 6.87564 275.823 6.87564C276.798 7.19316 286.799 68.1894 286.799 68.1894L294.647 39.6847L302.799 7.19316C304.11 5.18786 318.689 6.87564 318.689 6.87564L345.538 5.4644C349.207 4.28522 349.454 45.2965 349.454 45.2965C349.454 45.2965 348.386 67.8097 349.454 87.8805C349.683 88.8923 349.109 105.22 347.584 105.309C347.584 105.309 320.133 106.32 318.689 103.722C316.299 95.6895 317.737 82.848 317.737 74.1915C317.737 62.4386 314.799 40.216 314.799 40.216C309.996 53.9948 304.299 81.6894 304.299 81.6894C303.429 85.3272 300.808 104.899 297.097 104.074C291.833 102.904 274.769 105.309 273.799 102.689C272.403 98.9207 271.344 91.7402 270.425 87.8805C266.937 73.2326 263.299 55.6894 263.299 55.6894Z" fill="#C8B0E8" stroke="#C8B0E8" stroke-width="4"/>
<path d="M369.811 90.7736C369.811 92.6698 371.398 104.039 371.398 104.039C382.185 104.039 393.217 103.404 404.421 103.404C408.163 103.404 405.798 61.6895 405.798 55.1895C405.798 47.4708 410.866 5.56852 408.831 4.40606C400.51 -0.349178 376.636 3.20658 367.298 4.40601C367.298 12.4898 366.095 31.7984 369.811 43.6895C373.298 60.1895 369.811 73.4345 369.811 90.7736Z" fill="#C8B0E8" stroke="#C8B0E8" stroke-width="4"/>
<path d="M452.368 99.276C452.368 102.379 425.06 100.864 425.06 100.864C423.297 95.1895 425.061 49.0455 425.061 39.6895C425.061 34.0423 420.89 4.8496 425.06 4.68923C432.886 3.13833 444.298 4.68946 452.862 6.2404C459.03 6.2404 485.391 62.1252 485.391 62.1252C485.391 62.1252 485.546 41.6319 485.391 39.6895C485.391 34.6895 486.798 6.55793 486.798 6.55793C489.287 2.20153 515.798 5.63398 517.461 6.55793C519.124 7.48187 520.146 49.6895 517.461 64.1895C515.757 73.3905 516.983 90.1403 519.013 99.276C519.113 99.7222 484.791 100.864 481.58 98.6409C477.986 90.5535 473.472 82.5172 469.297 74.6895C464.716 66.0997 455.798 48.1895 455.798 48.1895C455.798 53.5167 452.368 84.4655 452.368 99.276Z" fill="#C8B0E8" stroke="#C8B0E8" stroke-width="4"/>
<path d="M591.798 80.898C589.59 80.898 571.509 80.3642 571.442 80.898C571.249 82.4386 566.798 101.689 566.798 101.689C555.671 102.117 532.298 101.689 532.298 101.689C531.028 95.3485 539.952 76.071 541.298 70.6893C542.933 64.1485 548.579 45.1005 550.798 38.6893C558.007 17.864 562.201 10.1891 563.045 8.50165C563.889 6.81419 600.796 5.80267 601.431 7.23154C608.173 22.4023 612.706 38.014 617.34 53.9795L617.484 54.4726C622.073 70.2814 624.798 82.6895 631.772 98.0445C634.81 104.731 604.298 102.689 598.798 101.689C598.798 101.689 594.005 80.898 591.798 80.898Z" fill="#C8B0E8" stroke="#C8B0E8" stroke-width="4"/>
<path d="M591.298 63.1895H571.798C571.798 51.2133 581.249 28.1851 581.249 28.1851C582.798 28.1851 594.454 61.8485 591.298 63.1895Z" stroke="#C8B0E8" stroke-width="4"/>
<path d="M91.7423 159.689C91.8323 164.642 89.7978 171.553 86.7978 176.189C81.2978 184.689 77.7978 187.189 77.7978 187.189C79.2978 189.689 86.7978 200.718 91.7423 207.559C94.1075 210.831 102.298 222.74 99.6924 222.74C92.7978 224.189 68.7979 224.738 67.2979 222.904C65.7979 221.071 58.2979 204.189 56.7979 199.189C56.7979 199.189 54.5897 192.381 52.7979 191.189C49.7979 191.189 43.7979 189.689 39.2346 191.189C39.2346 198.792 39.4015 204.013 39.2346 211.689C39.1697 214.673 39.2346 222.74 39.2346 222.74C32.7979 224.689 18.7979 222.74 9.79785 222.904C7.00402 222.74 7.30588 199.365 7.45472 196.24C7.71528 190.768 5.60233 130.82 8.00938 130.132C20.0318 126.697 35.7978 124.189 46.7979 124.189C57.7979 124.189 73.6234 126.243 82.2979 134.689C90.9723 143.136 91.5938 151.525 91.7423 159.689Z" fill="#C8B0E8" stroke="#C8B0E8" stroke-width="4"/>
<path d="M61.2979 164.69C59.699 169.886 47.747 172.384 39.2353 168.939C38.1465 152.19 38.1465 149.711 38.1465 149.711C41.2979 149.711 52.2979 146.71 58.2979 149.711C64.2979 152.711 62.8967 159.494 61.2979 164.69Z" fill="#C8B0E8" stroke="#C8B0E8" stroke-width="4"/>
<path d="M146.633 127.524C135.841 127.524 126.798 127.154 114.299 127.893C114.299 136.518 114.669 145.161 114.669 153.798C114.669 167.254 114.074 183.472 115.798 196.689C116.763 204.086 114.669 211.258 114.669 218.57C116.435 220.706 146.633 218.57 161.298 220.689C169.811 221.92 193.06 220.955 193.06 218.57V198.52H175.298H147.414C147.414 198.52 145.201 189.109 148.298 183.69H183.528V164.871L161.298 165.69C161.298 165.69 149.971 165.58 147.414 164.85V152.298C161.298 149.69 193.06 152.298 193.06 152.298C193.06 152.298 194.724 132.69 194.724 127.893C191.417 127.154 166.604 127.893 162.944 127.893C157.484 127.893 152.096 127.524 146.633 127.524Z" fill="#C8B0E8" stroke="#C8B0E8" stroke-width="4"/>
<path d="M298.815 142.684C290.798 118.189 231.204 126.481 211.798 127.19C211.798 139.601 213.582 150.689 214.055 164.46C214.886 188.689 214.055 218.118 214.055 218.118C216.798 218.118 272.298 226.689 290.798 218.118C303.298 210.189 305.057 200.189 302.798 189.689C299.781 175.669 278.298 175.189 278.298 175.189C278.298 175.189 304.298 175.189 298.815 142.684Z" fill="#C8B0E8" stroke="#C8B0E8" stroke-width="4"/>
<path d="M239.651 165.24C237.298 158.689 239.652 148.97 239.652 148.97C245.798 146.689 256.298 146.737 262.002 148.97C267.707 151.203 268.798 160.189 264.298 165.24C259.884 170.194 245.798 165.24 239.651 165.24Z" fill="#C8B0E8" stroke="#C8B0E8" stroke-width="4"/>
<path d="M245.297 204.689C241.798 204.689 241.797 188.582 241.798 184.189C244.541 181.689 269.281 181.053 267.298 194.189C266.152 201.78 252.298 204.206 245.297 204.689Z" fill="#C8B0E8" stroke="#C8B0E8" stroke-width="4"/>
<path d="M382.298 176.19C382.298 165.69 384.798 153.114 372.748 148.219C361.918 143.819 352.298 155.189 352.298 165.69C352.298 176.19 350.298 195.69 364.855 199.202C382.298 199.202 380.789 183.147 382.298 176.19Z" fill="#C8B0E8" stroke="#C8B0E8" stroke-width="4"/>
<path d="M323.298 147.189C316.454 160.878 319.769 179.715 323.298 193.189C326.184 204.207 332.545 214.313 340.798 219.189C354.562 227.323 380.414 225.599 393.298 216.713C401.633 210.965 405.512 205.508 408.199 195.549C411.129 184.693 410.607 170.689 410.607 159.991C410.607 142.689 391.958 124.915 369.898 124.915C350.485 124.915 333.766 129.307 323.298 147.189Z" fill="#C8B0E8" stroke="#C8B0E8" stroke-width="4"/>
<path d="M509.938 207.189C509.938 207.189 511.14 198.398 509.938 198.131C508.736 197.864 466.955 198.131 466.955 198.131C466.955 183.136 466.826 167.087 468.213 152.189C468.889 144.921 468.279 126.359 466.955 126.359C456.878 125.767 443.734 124.593 433.725 126.359C430.798 139.689 432.596 164.631 433.484 177.516C434.226 188.265 433.725 209.689 433.725 209.689C433.725 209.689 433.484 218.095 433.484 221.703C433.484 226.294 459.134 222.041 464.298 222.452C464.298 222.452 488.065 222.012 498.42 222.452C499.344 222.492 509.869 222.868 509.938 221.703C510.262 216.188 508.916 212.865 509.938 207.189Z" fill="#C8B0E8" stroke="#C8B0E8" stroke-width="4"/>
<path d="M527.877 221.717C541.076 221.717 554.629 222.902 567.798 221.717C575.932 220.984 593.798 222.733 603.298 221.717V197.689C601.385 193.209 564.298 195.189 559.716 195.189C559.716 195.189 559.087 171.083 559.716 163.189C560.137 157.901 562.452 128.615 557.87 124.687C557.87 124.687 534.313 123.822 527.877 124.674C523.298 125.28 527.877 165.689 527.877 177.597C527.876 189.504 527.877 221.717 527.877 221.717Z" fill="#C8B0E8" stroke="#C8B0E8" stroke-width="4"/>
<path d="M656.947 150.19C656.947 149.205 674.298 150.19 674.298 150.19C678.298 150.19 689.683 149.489 698.798 150.19C701.798 150.421 702.052 132.14 701.298 126.19C699.448 125.169 664.722 124.854 654.967 125.169C643.813 125.529 634.286 122.969 623.289 125.169C623.289 131.043 622.663 141.113 623.288 147.363C624.292 157.404 624.132 179.726 623.287 192.689C622.672 202.134 623.288 213.189 623.342 219.161C627.799 221.222 648.798 221.222 661.298 221.222C673.798 221.222 693.776 222.482 699.448 221.222C703.063 220.418 703.181 203.075 703.181 198.84C699.448 195.689 661.298 198.84 656.01 197.77C654.938 196.832 655.801 185.127 656.298 184.189C657.21 182.466 691.295 184.189 691.381 182.466C691.678 176.53 691.381 165.189 691.381 165.189H656.947C656.743 161.523 656.947 153.922 656.947 150.19Z" fill="#C8B0E8" stroke="#C8B0E8" stroke-width="4"/>
<path d="M757.297 126.69C745.619 125.848 730.903 127.116 719.313 129.009C719.313 153.226 716.298 156.01 716.298 180.189C716.298 186.19 717.693 214.466 718.604 220.392C718.844 221.949 749.798 222.689 751.797 222.689C783.742 222.689 796.69 220.189 804.69 192.189C807.431 179.485 808.887 164.78 804.69 152.189C798.418 133.372 774.005 127.894 757.297 126.69Z" fill="#C8B0E8" stroke="#C8B0E8" stroke-width="4"/>
<path d="M751.798 153.689C749.798 161.69 751.798 183.19 751.798 193.189C755.07 197.799 778.298 191.689 778.298 172.689C778.298 160.19 761.298 150.689 751.798 153.689Z" fill="#C8B0E8" stroke="#C8B0E8" stroke-width="4"/>
<path d="M891.299 185.189C889.245 193.174 881.298 204.189 870.798 198.689C860.798 194.689 858.605 178.212 859.798 169.689C861.003 161.083 865.98 151.137 875.62 148.995C896.299 147.189 893.685 175.908 891.299 185.189Z" fill="#C8B0E8" stroke="#C8B0E8" stroke-width="4"/>
<path d="M832.798 200.19C828.485 190.69 825.257 163.138 834.798 147.791C842.013 136.184 852.875 125.812 866.298 123.19C887.798 118.989 912.896 127.449 919.798 147.791C930.45 179.187 925.312 210.249 894.798 222.189C867.716 232.787 842.557 221.69 832.798 200.19Z" fill="#C8B0E8" stroke="#C8B0E8" stroke-width="4"/>
</svg>
