<svg width="634" height="106" viewBox="0 0 634 106" fill="none" xmlns="http://www.w3.org/2000/svg">
<path fill-rule="evenodd" clip-rule="evenodd" d="M36.0467 28.1358C36.0467 28.1358 36.0465 28.1358 36.042 29.1357L36.0467 28.1358L35.042 28.1313V29.1357C35.042 32.7366 35.202 35.6546 35.3606 38.5477L35.361 38.5561C35.5198 41.4523 35.6771 44.3242 35.6771 47.8699V48.6936L36.4855 48.8514C41.3824 49.8068 45.8613 50 50.7979 50C53.3813 50 55.7863 49.3319 57.7505 48.3279C59.6914 47.3359 61.2685 45.9805 62.143 44.5351C63.8292 41.9902 64.0758 38.5878 63.2121 35.6359C62.3445 32.6707 60.2923 29.9577 57.1518 28.9914C56.7461 28.8666 56.1027 28.7789 55.3809 28.7078C54.6285 28.6337 53.6969 28.5697 52.6588 28.5142C50.5811 28.4031 48.0414 28.3242 45.5839 28.2683C43.1248 28.2123 40.7407 28.1792 38.972 28.16C38.0875 28.1505 37.3565 28.1444 36.8464 28.1407C36.5914 28.1389 36.3916 28.1376 36.2555 28.1369L36.0467 28.1358ZM37.358 38.4466C37.2146 35.8295 37.0723 33.233 37.0462 30.1423C37.5365 30.146 38.1859 30.1517 38.9504 30.1599C40.7143 30.179 43.0898 30.212 45.5384 30.2678C47.9885 30.3235 50.5046 30.4019 52.552 30.5113C53.5765 30.5661 54.4748 30.6282 55.1848 30.6982C55.9254 30.7711 56.3768 30.8455 56.5636 30.903C58.8886 31.6184 60.5565 33.6818 61.2926 36.1976C62.0303 38.719 61.7678 41.4923 60.4658 43.4453L60.4526 43.4651L60.4404 43.4855C59.8123 44.5323 58.5584 45.6689 56.8402 46.5471C55.136 47.4181 53.0411 48 50.7979 48C46.1935 48 42.0795 47.8294 37.6742 47.0392C37.6521 43.811 37.5046 41.1209 37.3584 38.4525L37.358 38.4466Z" fill="#C8B0E8" fill-opacity="0.8"/>
<path fill-rule="evenodd" clip-rule="evenodd" d="M54.2979 2C37.7775 2 20.2366 2.53759 2.24444 3.50109L1.40124 3.54625L1.3045 4.3851C-0.203732 17.4634 -0.199653 40.5874 0.29849 54.5354C0.393107 57.1847 0.445744 60.3535 0.503203 63.8126L0.525213 65.1316C0.592011 69.0987 0.67226 73.3881 0.832918 77.6474C1.15306 86.1348 1.79463 94.6102 3.32468 100.208L3.52594 100.945H35.7046L35.9957 100.661C36.2741 100.391 36.4562 100.024 36.5847 99.7028C36.7228 99.3577 36.8438 98.9469 36.9525 98.4956C37.1701 97.5912 37.3592 96.4329 37.5251 95.1172C37.8577 92.4805 38.1092 89.1143 38.2971 85.6723C38.6317 79.5447 38.7679 73.116 38.7938 69.9996H50.9492C51.1353 70.8396 51.4657 71.782 51.8858 72.7784C52.473 74.171 53.2679 75.7431 54.1914 77.4069C56.0388 80.7354 58.4329 84.4883 60.7959 88.0032C63.1608 91.5211 65.5043 94.815 67.2558 97.2285C68.1317 98.4356 68.8602 99.4232 69.37 100.109C69.6249 100.453 69.8251 100.72 69.9619 100.903C70.0302 100.994 70.0827 101.064 70.1182 101.111L70.1689 101.178L70.1715 101.182L70.1722 101.182C70.1722 101.182 70.1725 101.183 70.9701 100.58L70.1722 101.182L70.4622 101.566L70.9423 101.579C75.8811 101.716 83.2303 101.696 89.4035 101.579C92.4907 101.521 95.2926 101.438 97.3581 101.339C98.3888 101.289 99.2479 101.234 99.8711 101.175C100.18 101.146 100.45 101.113 100.66 101.077C100.763 101.059 100.876 101.036 100.98 101.005C101.032 100.99 101.102 100.967 101.176 100.933C101.236 100.906 101.374 100.839 101.506 100.707C101.731 100.482 101.787 100.223 101.804 100.098C101.823 99.9619 101.813 99.8456 101.804 99.7748C101.786 99.6309 101.746 99.4938 101.711 99.3901C101.639 99.1719 101.527 98.9056 101.394 98.6176C101.124 98.0323 100.717 97.2405 100.224 96.3208C99.2348 94.4761 97.8641 92.0537 96.4574 89.6049C95.2565 87.5141 94.037 85.4169 92.9997 83.6328L92.9988 83.6313C91.5851 81.2 90.5098 79.3508 90.2811 78.8933C89.632 77.5952 87.2994 73.5368 85.1562 69.8475C84.0789 67.9929 83.0411 66.2175 82.2728 64.9058C81.9673 64.3844 81.7044 63.9362 81.4985 63.5853C88.4698 59.2073 96.4886 53.4044 97.4031 43.8017C98.3202 34.1722 97.2785 23.3004 89.741 15.763C81.2918 7.31375 71.0666 2 54.2979 2ZM89.3657 99.5798C83.407 99.6925 76.3643 99.7146 71.4794 99.5927C71.3506 99.4207 71.1811 99.1936 70.9755 98.9168C70.4695 98.2357 69.7455 97.2541 68.8744 96.0538C67.1318 93.6526 64.8031 90.3793 62.4557 86.8874C60.1062 83.3926 57.7477 79.6931 55.9401 76.4363C55.0361 74.8076 54.2779 73.3039 53.7286 72.0013C53.1718 70.6806 52.8607 69.6377 52.7945 68.9091L52.7118 67.9996H36.7986V68.9996C36.7986 71.4829 36.674 78.7147 36.3001 85.5632C36.113 88.9894 35.8645 92.3004 35.5408 94.8669C35.3786 96.1528 35.2005 97.2277 35.008 98.0276C34.9138 98.4192 34.8211 98.7233 34.7339 98.9446H5.06229C3.73577 93.5933 3.13789 85.6951 2.8315 77.572C2.6717 73.3355 2.59172 69.0645 2.52493 65.0979L2.50291 63.7784C2.44554 60.3236 2.39257 57.1338 2.29722 54.4641C1.81035 40.8319 1.80134 18.5112 3.19815 5.45318C20.8651 4.51953 38.0787 4 54.2979 4C70.5276 4 80.2465 9.09691 88.3268 17.1772C95.217 24.0674 96.3121 34.1618 95.4121 43.6121C94.5674 52.4814 86.8904 57.8865 79.6157 62.4029L78.786 62.918L79.2813 63.7597L79.4968 63.6328C79.2813 63.7597 79.2813 63.7597 79.2813 63.7597L79.6262 64.3467C79.8468 64.7222 80.1633 65.2615 80.5471 65.9167C81.3146 67.227 82.3511 69.0003 83.4268 70.8521C85.5899 74.5757 87.879 78.5613 88.4923 79.7878C88.7468 80.2968 89.9043 82.288 91.3839 84.8332C92.4069 86.5931 93.5843 88.6185 94.7232 90.601C96.1285 93.0477 97.4869 95.4487 98.4614 97.266C98.8772 98.0414 99.2169 98.6992 99.4592 99.2039C98.9007 99.2515 98.1574 99.2976 97.2616 99.3408C95.2239 99.4393 92.4438 99.5216 89.3657 99.5798Z" fill="#C8B0E8" fill-opacity="0.8"/>
<path fill-rule="evenodd" clip-rule="evenodd" d="M172.111 32.194C169.981 30.0648 166.057 28.8797 162.284 28.7681C158.517 28.6566 154.46 29.6048 152.192 32.2503C149.616 35.2558 147.807 38.136 146.648 41.284C145.49 44.4316 145.001 47.7945 145.001 51.741C145.001 54.4236 145.065 57.6873 145.454 60.9312C145.841 64.1645 146.559 67.4466 147.904 70.1367C148.809 71.947 150.766 73.3532 153.035 74.2999C155.336 75.2597 158.111 75.8145 160.874 75.8145C166.341 75.8145 172.201 73.593 173.767 67.436C173.828 67.1971 173.901 66.9196 173.983 66.6073C174.745 63.706 176.298 57.7934 176.298 51.741C176.298 51.3104 176.301 50.8558 176.304 50.3817C176.319 47.834 176.337 44.722 175.963 41.7266C175.521 38.193 174.513 34.5959 172.111 32.194ZM153.711 33.5518C155.395 31.5875 158.691 30.6627 162.225 30.7672C165.754 30.8716 169.08 31.9914 170.697 33.6083C172.613 35.5252 173.552 38.5612 173.978 41.9745C174.335 44.8279 174.318 47.7872 174.304 50.3385C174.301 50.8218 174.298 51.2905 174.298 51.741C174.298 57.5152 172.814 63.1771 172.049 66.0952C171.967 66.411 171.892 66.6948 171.829 66.943C170.597 71.786 165.958 73.8145 160.874 73.8145C158.362 73.8145 155.849 73.3068 153.806 72.4541C151.73 71.5883 150.288 70.432 149.693 69.2423C148.496 66.8493 147.815 63.8281 147.44 60.6933C147.065 57.5692 147.001 54.4002 147.001 51.741C147.001 47.9639 147.468 44.8464 148.525 41.9747C149.582 39.1034 151.248 36.4255 153.711 33.5518Z" fill="#C8B0E8" fill-opacity="0.8"/>
<path fill-rule="evenodd" clip-rule="evenodd" d="M192.386 9.8804C179.852 0.788672 166.226 1.00474 155.237 1.6916C138.87 2.71457 123.063 13.8606 118.83 30.4422C114.397 47.8078 115.146 70.9418 125.992 85.7797C134.259 97.0903 149.144 102.134 166.289 102.134C178.517 102.134 191.108 97.7165 198.624 86.7551C202.225 81.5032 204.554 74.6912 205.985 67.73C207.419 60.7575 207.968 53.5675 207.968 47.5073C207.968 35.4233 205.019 19.0432 192.386 9.8804ZM155.362 3.68771C166.309 3.00351 179.293 2.85372 191.212 11.4993C203.033 20.0731 205.968 35.5852 205.968 47.5073C205.968 53.4584 205.428 60.5107 204.026 67.3271C202.622 74.1548 200.366 80.6783 196.975 85.6241C189.942 95.8801 178.082 100.134 166.289 100.134C149.455 100.134 135.339 95.1781 127.606 84.5995C117.255 70.4373 116.411 48.0054 120.768 30.9369C124.756 15.3173 139.729 4.66478 155.362 3.68771Z" fill="#C8B0E8" fill-opacity="1"/>
<path d="M264.299 54.6894C264.269 54.1173 260.276 39.216 260.276 39.216C260.276 39.216 258.299 68.1894 258.299 83.1894C258.123 84.6859 259.677 102.722 257.172 104.309C248.568 104.309 235.942 103.645 227.254 103.074C221.299 98.4526 224.749 61.1894 224.748 48.7066C224.748 33.6894 224.938 21.2411 227.253 6.19316C227.253 6.19316 244.298 4.4644 248.798 4.46464C258.994 4.46464 272.798 5.87564 276.823 5.87564C277.798 6.19316 287.799 67.1894 287.799 67.1894L295.647 38.6847L303.799 6.19316C305.11 4.18786 319.689 5.87564 319.689 5.87564L346.538 4.4644C350.207 3.28522 350.454 44.2965 350.454 44.2965C350.454 44.2965 349.386 66.8097 350.454 86.8805C350.683 87.8923 350.109 104.22 348.584 104.309C348.584 104.309 321.133 105.32 319.689 102.722C317.299 94.6895 318.737 81.848 318.737 73.1915C318.737 61.4386 315.799 39.216 315.799 39.216C310.996 52.9948 305.299 80.6894 305.299 80.6894C304.429 84.3272 301.808 103.899 298.097 103.074C292.833 101.904 275.769 104.309 274.799 101.689C273.403 97.9207 272.344 90.7402 271.425 86.8805C267.937 72.2326 264.299 54.6894 264.299 54.6894Z" stroke="#C8B0E8" stroke-opacity="1" stroke-width="10"/>
<path d="M370.811 89.7736C370.811 91.6698 372.398 103.039 372.398 103.039C383.185 103.039 394.217 102.404 405.421 102.404C409.163 102.404 406.798 60.6895 406.798 54.1895C406.798 46.4708 411.866 4.56852 409.831 3.40606C401.51 -1.34918 377.636 2.20658 368.298 3.40601C368.298 11.4898 367.095 30.7984 370.811 42.6895C374.298 59.1895 370.811 72.4345 370.811 89.7736Z" stroke="#C8B0E8" stroke-opacity="1" stroke-width="10"/>
<path d="M453.368 98.276C453.368 101.379 426.06 99.8636 426.06 99.8636C424.297 94.1895 426.061 48.0455 426.061 38.6895C426.061 33.0423 421.89 3.8496 426.06 3.68923C433.886 2.13833 445.298 3.68946 453.862 5.2404C460.03 5.2404 486.391 61.1252 486.391 61.1252C486.391 61.1252 486.546 40.6319 486.391 38.6895C486.391 33.6895 487.798 5.55793 487.798 5.55793C490.287 1.20153 516.798 4.63398 518.461 5.55793C520.124 6.48187 521.146 48.6895 518.461 63.1895C516.757 72.3905 517.983 89.1403 520.013 98.276C520.113 98.7222 485.791 99.8636 482.58 97.6409C478.986 89.5535 474.472 81.5172 470.297 73.6895C465.716 65.0997 456.798 47.1895 456.798 47.1895C456.798 52.5167 453.368 83.4655 453.368 98.276Z" stroke="#C8B0E8" stroke-opacity="0.8" stroke-width="10"/>
<path fill-rule="evenodd" clip-rule="evenodd" d="M582.25 26.1851H581.579L581.325 26.8054L582.25 27.1851C581.325 26.8054 581.325 26.8051 581.325 26.8054L581.324 26.8067L581.317 26.8234L581.296 26.8745C581.278 26.9194 581.251 26.9857 581.216 27.0725C581.146 27.246 581.044 27.5013 580.914 27.83C580.654 28.4873 580.283 29.4386 579.838 30.617C578.948 32.9733 577.761 36.2411 576.573 39.8865C574.213 47.1325 571.798 56.0232 571.798 62.1895V63.1895H592.502L592.689 63.1098C593.309 62.8465 593.571 62.2655 593.687 61.8393C593.811 61.3854 593.847 60.8457 593.836 60.2816C593.815 59.142 593.598 57.6472 593.258 55.957C592.575 52.5614 591.353 48.1888 589.992 43.883C588.63 39.5729 587.118 35.3 585.847 32.0969C585.212 30.4987 584.63 29.1481 584.15 28.1875C583.913 27.7119 583.686 27.3011 583.477 26.9971C583.374 26.8483 583.252 26.6886 583.111 26.5552C583.015 26.4642 582.709 26.1851 582.25 26.1851ZM581.709 31.3237C582.001 30.5495 582.261 29.8747 582.478 29.3188C582.9 30.191 583.415 31.3924 583.988 32.8349C585.238 35.9856 586.734 40.2124 588.085 44.4858C589.437 48.7635 590.635 53.0582 591.297 56.3516C591.63 58.006 591.819 59.3611 591.837 60.3191C591.844 60.7112 591.821 60.9961 591.786 61.1895H573.82C574.057 55.4208 576.242 47.362 578.475 40.5059C579.65 36.8972 580.826 33.6595 581.709 31.3237ZM591.72 61.4175C591.72 61.4172 591.722 61.4136 591.725 61.4077C591.722 61.4148 591.72 61.4177 591.72 61.4175Z" fill="#C8B0E8" fill-opacity="1"/>
<path fill-rule="evenodd" clip-rule="evenodd" d="M603.345 5.8254C603.163 5.41584 602.793 5.24481 602.679 5.19323C602.505 5.11445 602.311 5.05931 602.13 5.01754C601.762 4.93233 601.282 4.86579 600.732 4.8115C599.623 4.70196 598.096 4.63019 596.307 4.59014C592.721 4.50988 588.003 4.5555 583.286 4.69843C578.57 4.84134 573.838 5.08208 570.224 5.39407C568.421 5.54975 566.875 5.7249 565.743 5.91826C565.181 6.01421 564.689 6.11986 564.309 6.23976C564.12 6.29905 563.925 6.37222 563.751 6.46665C563.612 6.54201 563.32 6.71688 563.151 7.05438C563.091 7.1759 563.013 7.32767 562.918 7.51227C561.682 9.92824 557.568 17.9653 550.853 37.3622C548.624 43.8021 542.97 62.8783 541.328 69.4468C541.009 70.7231 540.224 72.8754 539.21 75.5584C538.996 76.1248 538.773 76.7128 538.543 77.318L538.543 77.3191C537.696 79.5493 536.76 82.0134 535.876 84.4939C534.752 87.6468 533.7 90.8571 533.008 93.6903C532.329 96.4756 531.953 99.0627 532.318 100.886L532.476 101.674L533.28 101.689L533.299 100.689C533.28 101.689 533.28 101.689 533.28 101.689L533.282 101.689L533.285 101.689L533.546 101.694C533.721 101.697 533.978 101.701 534.308 101.707C534.97 101.718 535.927 101.733 537.11 101.749C539.477 101.783 542.749 101.823 546.368 101.85C553.601 101.903 562.247 101.904 567.837 101.689L568.601 101.659L568.773 100.915L567.798 100.689C568.773 100.915 568.773 100.915 568.773 100.915L568.965 100.084C569.087 99.5542 569.261 98.796 569.472 97.8813C569.892 96.052 570.455 93.5966 571.023 91.0929C571.592 88.5895 572.167 86.0361 572.612 84.0113C572.913 82.6434 573.163 81.4804 573.308 80.7429L573.318 80.7421C573.793 80.7078 574.49 80.6851 575.355 80.6727C577.079 80.6479 579.403 80.6644 581.804 80.6977C584.403 80.7338 587.104 80.79 589.204 80.8337L589.211 80.8338C590.758 80.866 591.978 80.8914 592.589 80.8969C592.658 80.9754 592.755 81.1063 592.876 81.3072C593.174 81.8024 593.518 82.552 593.892 83.5098C594.634 85.4134 595.429 87.9755 596.164 90.5665C596.897 93.151 597.562 95.7384 598.044 97.6815C598.285 98.6526 598.481 99.4616 598.615 100.028C598.656 100.197 598.691 100.345 598.72 100.469C598.739 100.552 598.756 100.623 598.77 100.684L598.81 100.856L598.824 100.913C598.824 100.913 598.824 100.914 599.798 100.689L598.824 100.913L598.972 101.555L599.619 101.673C602.454 102.188 611.528 102.951 619.512 102.749C623.494 102.649 627.304 102.307 629.955 101.536C631.26 101.156 632.436 100.631 633.178 99.8515C633.565 99.4444 633.854 98.9475 633.95 98.3608C634.047 97.7751 633.937 97.1902 633.683 96.6309C628.218 84.5986 625.385 74.4114 622.175 62.8669C621.312 59.7615 620.421 56.5579 619.444 53.1938L619.293 52.6715C614.664 36.7263 610.115 21.0586 603.345 5.8254ZM534.341 99.707L534.186 99.7044C534.115 98.3537 534.392 96.4562 534.951 94.1644C535.618 91.4315 536.643 88.2972 537.76 85.1655C538.636 82.7064 539.562 80.268 540.409 78.0399C540.64 77.4313 540.865 76.8385 541.081 76.2652C542.08 73.6219 542.915 71.3464 543.268 69.9318C544.897 63.4186 550.534 44.399 552.743 38.0164C559.421 18.7251 563.498 10.7664 564.712 8.39792L564.825 8.1753C564.849 8.16686 564.877 8.15753 564.909 8.14744C565.162 8.06783 565.55 7.98011 566.08 7.88971C567.13 7.71033 568.611 7.54077 570.396 7.38666C573.959 7.07903 578.652 6.8398 583.347 6.69751C588.042 6.55523 592.723 6.51042 596.262 6.58964C598.035 6.62932 599.502 6.69977 600.536 6.80182C601.045 6.85205 601.418 6.90713 601.661 6.9619C608.297 21.9684 612.781 37.4162 617.389 53.2879L617.524 53.7514C618.487 57.0706 619.37 60.2463 620.229 63.3361C623.445 74.9054 626.327 85.2717 631.862 97.458C631.988 97.7345 631.996 97.9173 631.977 98.0359C631.957 98.1534 631.896 98.2973 631.729 98.4723C631.362 98.8576 630.61 99.262 629.396 99.6154C627.008 100.31 623.416 100.65 619.462 100.75C612.121 100.935 603.876 100.291 600.619 99.8097L600.561 99.5643C600.425 98.9932 600.228 98.1779 599.986 97.1998C599.5 95.2445 598.829 92.6341 598.088 90.0208C597.349 87.414 596.533 84.7782 595.755 82.7834C595.369 81.792 594.976 80.9173 594.59 80.2755C594.398 79.9576 594.182 79.6526 593.938 79.4151C593.716 79.198 593.327 78.898 592.798 78.898C592.302 78.898 591.004 78.8708 589.283 78.8349C587.195 78.7913 584.484 78.7347 581.832 78.6979C579.428 78.6645 577.08 78.6477 575.326 78.6729C574.453 78.6855 573.709 78.7087 573.174 78.7473C572.912 78.7662 572.668 78.791 572.475 78.8269C572.386 78.8435 572.255 78.8715 572.126 78.9238C572.064 78.949 571.949 79.0003 571.831 79.0951C571.72 79.1848 571.496 79.404 571.45 79.7739C571.409 80.1 571.11 81.5282 570.659 83.5818C570.215 85.5998 569.641 88.1479 569.073 90.6498C568.505 93.1514 567.943 95.605 567.522 97.4333C567.312 98.3474 567.138 99.1052 567.016 99.6344L566.997 99.7174C561.453 99.9029 553.294 99.9009 546.383 99.8498C542.769 99.8231 539.502 99.783 537.139 99.7496C535.957 99.7329 535.001 99.7178 534.341 99.707ZM564.705 8.22431L564.711 8.22158C564.695 8.23193 564.691 8.23231 564.705 8.22431ZM592.51 80.8188C592.509 80.8182 592.513 80.8205 592.521 80.8271C592.514 80.8225 592.51 80.8194 592.51 80.8188Z" fill="#C8B0E8" fill-opacity="1"/>
</svg>
