<svg width="923" height="272" viewBox="0 0 923 272" fill="none" xmlns="http://www.w3.org/2000/svg">
<path d="M159.299 102.134H128.289C125.298 91.1892 125.726 68.6675 125.298 56.6892C124.8 42.7508 124.799 19.6891 126.298 6.68911C144.276 5.72637 161.799 5.18945 178.298 5.18945C194.797 5.18945 204.769 10.3948 213.034 18.6595C220.248 25.8734 221.316 36.3565 220.408 45.8964C219.51 55.3237 211.355 60.9646 204.143 65.442C204.143 65.442 212.124 79.0053 213.387 81.53C214.214 83.1842 225.299 101.689 224.799 102.189C224.299 102.689 204.804 103.042 194.97 102.769C194.97 102.769 176.442 78.2709 175.799 71.189H161.799C161.799 76.189 161.299 100.189 159.299 102.134Z" stroke="#C8B0E8" stroke-width="4"/>
<path d="M174.798 51.1895C169.888 51.1895 165.482 50.9969 160.677 50.0593C160.677 42.9074 160.042 38.4731 160.042 31.3252C160.042 31.3252 178.488 31.4074 180.858 32.1367C186.323 33.8183 188.298 41.6895 185.298 46.1895C183.798 48.6895 179.625 51.1895 174.798 51.1895Z" stroke="#C8B0E8" stroke-width="4"/>
<path d="M297.298 52.741C297.298 59.2925 295.434 65.6895 294.798 68.1895C292 79.1895 273.798 76.6895 270.798 70.6895C268.256 65.6064 268.001 58.0828 268.001 52.741C268.001 45.0173 269.912 39.7802 274.951 33.901C278.903 29.2912 289.657 30.155 293.403 33.9011C297.722 38.2199 297.298 47.1674 297.298 52.741Z" stroke="#C8B0E8" stroke-width="4"/>
<path d="M328.967 48.5068C328.967 36.5037 326.025 20.5576 313.799 11.6893C301.572 2.82067 288.267 3.00361 277.299 3.68914C261.299 4.68915 245.909 15.5884 241.799 31.6891C237.403 48.9061 238.2 71.6891 248.799 86.1891C256.799 97.1337 271.299 102.134 288.289 102.134C300.299 102.134 312.524 97.7978 319.799 87.1891C326.792 76.9914 328.967 60.5181 328.967 48.5068Z" stroke="#C8B0E8" stroke-width="4"/>
<path d="M386.299 55.6894C386.269 55.1173 382.276 40.216 382.276 40.216C382.276 40.216 380.299 69.1894 380.299 84.1894C380.123 85.6859 381.677 103.722 379.172 105.309C370.568 105.309 357.942 104.645 349.254 104.074C343.299 99.4526 346.749 62.1894 346.748 49.7066C346.748 34.6894 346.938 22.2411 349.253 7.19316C349.253 7.19316 366.298 5.4644 370.798 5.46464C380.994 5.46464 394.798 6.87564 398.823 6.87564C399.798 7.19316 409.799 68.1894 409.799 68.1894L417.647 39.6847L425.799 7.19316C427.11 5.18786 441.689 6.87564 441.689 6.87564L468.538 5.4644C472.207 4.28522 472.454 45.2965 472.454 45.2965C472.454 45.2965 471.386 67.8097 472.454 87.8805C472.683 88.8923 472.109 105.22 470.584 105.309C470.584 105.309 443.133 106.32 441.689 103.722C439.299 95.6895 440.737 82.848 440.737 74.1915C440.737 62.4386 437.799 40.216 437.799 40.216C432.996 53.9948 427.299 81.6894 427.299 81.6894C426.429 85.3272 423.808 104.899 420.097 104.074C414.833 102.904 397.769 105.309 396.799 102.689C395.403 98.9207 394.344 91.7402 393.425 87.8805C389.937 73.2326 386.299 55.6894 386.299 55.6894Z" stroke="#C8B0E8" stroke-width="4"/>
<path d="M492.811 90.7736C492.811 92.6698 494.398 104.039 494.398 104.039C505.185 104.039 516.217 103.404 527.421 103.404C531.163 103.404 528.798 61.6895 528.798 55.1895C528.798 47.4708 533.866 5.56852 531.831 4.40606C523.51 -0.349178 499.636 3.20658 490.298 4.40601C490.298 12.4898 489.095 31.7984 492.811 43.6895C496.298 60.1895 492.811 73.4345 492.811 90.7736Z" stroke="#C8B0E8" stroke-width="4"/>
<path d="M575.368 99.276C575.368 102.379 548.06 100.864 548.06 100.864C546.297 95.1895 548.061 49.0455 548.061 39.6895C548.061 34.0423 543.89 4.8496 548.06 4.68923C555.886 3.13833 567.298 4.68946 575.862 6.2404C582.03 6.2404 608.391 62.1252 608.391 62.1252C608.391 62.1252 608.546 41.6319 608.391 39.6895C608.391 34.6895 609.798 6.55793 609.798 6.55793C612.287 2.20153 638.798 5.63398 640.461 6.55793C642.124 7.48187 643.146 49.6895 640.461 64.1895C638.757 73.3905 639.983 90.1403 642.013 99.276C642.113 99.7222 607.791 100.864 604.58 98.6409C600.986 90.5535 596.472 82.5172 592.297 74.6895C587.716 66.0997 578.798 48.1895 578.798 48.1895C578.798 53.5167 575.368 84.4655 575.368 99.276Z" stroke="#C8B0E8" stroke-width="4"/>
<path d="M714.798 80.898C712.59 80.898 694.509 80.3642 694.442 80.898C694.249 82.4386 689.798 101.689 689.798 101.689C678.671 102.117 655.298 101.689 655.298 101.689C654.028 95.3485 662.952 76.071 664.298 70.6893C665.933 64.1485 671.579 45.1005 673.798 38.6893C681.007 17.864 685.201 10.1891 686.045 8.50165C686.889 6.81419 723.796 5.80267 724.431 7.23154C731.173 22.4023 735.706 38.014 740.34 53.9795L740.484 54.4726C745.073 70.2814 747.798 82.6895 754.772 98.0445C757.81 104.731 727.298 102.689 721.798 101.689C721.798 101.689 717.005 80.898 714.798 80.898Z" stroke="#C8B0E8" stroke-width="4"/>
<path d="M714.298 63.1895H694.798C694.798 51.2133 704.249 28.1851 704.249 28.1851C705.798 28.1851 717.454 61.8485 714.298 63.1895Z" stroke="#C8B0E8" stroke-width="4"/>
<path d="M87.7423 202.689C87.8323 207.642 85.7978 214.553 82.7978 219.189C77.2978 227.689 73.7978 230.189 73.7978 230.189C75.2978 232.689 82.7978 243.718 87.7423 250.559C90.1075 253.831 98.2978 265.74 95.6924 265.74C88.7978 267.189 64.7979 267.738 63.2979 265.904C61.7979 264.071 54.2979 247.189 52.7979 242.189C52.7979 242.189 50.5897 235.381 48.7979 234.189C45.7979 234.189 39.7979 232.689 35.2346 234.189C35.2346 241.792 35.4015 247.013 35.2346 254.689C35.1697 257.673 35.2346 265.74 35.2346 265.74C28.7979 267.689 14.7979 265.74 5.79785 265.904C3.00402 265.74 3.30588 242.365 3.45472 239.24C3.71528 233.768 1.60233 173.82 4.00938 173.132C16.0318 169.697 31.7978 167.189 42.7979 167.189C53.7979 167.189 69.6234 169.243 78.2979 177.689C86.9723 186.136 87.5938 194.525 87.7423 202.689Z" stroke="#C8B0E8" stroke-width="4"/>
<path d="M57.2969 207.69C55.6981 212.886 43.746 215.384 35.2343 211.939C34.1455 195.19 34.1455 192.711 34.1455 192.711C37.2969 192.711 48.2969 189.71 54.2969 192.711C60.2969 195.711 58.8957 202.494 57.2969 207.69Z" stroke="#C8B0E8" stroke-width="4"/>
<path d="M142.633 170.524C131.841 170.524 122.798 170.154 110.299 170.893C110.299 179.518 110.669 188.161 110.669 196.798C110.669 210.254 110.074 226.472 111.798 239.689C112.763 247.086 110.669 254.258 110.669 261.57C112.435 263.706 142.633 261.57 157.298 263.689C165.811 264.92 189.06 263.955 189.06 261.57V241.52H171.298H143.414C143.414 241.52 141.201 232.109 144.298 226.69H179.528V207.871L157.298 208.69C157.298 208.69 145.971 208.58 143.414 207.85V195.298C157.298 192.69 189.06 195.298 189.06 195.298C189.06 195.298 190.724 175.69 190.724 170.893C187.417 170.154 162.604 170.893 158.944 170.893C153.484 170.893 148.096 170.524 142.633 170.524Z" stroke="#C8B0E8" stroke-width="4"/>
<path d="M294.815 185.684C286.798 161.189 227.204 169.481 207.798 170.19C207.798 182.601 209.582 193.689 210.055 207.46C210.886 231.689 210.055 261.118 210.055 261.118C212.798 261.118 268.298 269.689 286.798 261.118C299.298 253.189 301.057 243.189 298.798 232.689C295.781 218.669 274.298 218.189 274.298 218.189C274.298 218.189 300.298 218.189 294.815 185.684Z" stroke="#C8B0E8" stroke-width="4"/>
<path d="M235.651 208.24C233.298 201.689 235.652 191.97 235.652 191.97C241.798 189.689 252.298 189.737 258.002 191.97C263.707 194.203 264.798 203.189 260.298 208.24C255.884 213.194 241.798 208.24 235.651 208.24Z" stroke="#C8B0E8" stroke-width="4"/>
<path d="M241.297 247.689C237.798 247.689 237.797 231.582 237.798 227.189C240.541 224.689 265.281 224.053 263.298 237.189C262.152 244.78 248.298 247.206 241.297 247.689Z" stroke="#C8B0E8" stroke-width="4"/>
<path d="M378.298 219.19C378.298 208.69 380.798 196.114 368.748 191.219C357.918 186.819 348.298 198.189 348.298 208.69C348.298 219.19 346.298 238.69 360.855 242.202C378.298 242.202 376.789 226.147 378.298 219.19Z" stroke="#C8B0E8" stroke-width="4"/>
<path d="M319.298 190.189C312.454 203.878 315.769 222.715 319.298 236.189C322.184 247.207 328.545 257.313 336.798 262.189C350.562 270.323 376.414 268.599 389.298 259.713C397.633 253.965 401.512 248.508 404.199 238.549C407.129 227.693 406.607 213.689 406.607 202.991C406.607 185.689 387.958 167.915 365.898 167.915C346.485 167.915 329.766 172.307 319.298 190.189Z" stroke="#C8B0E8" stroke-width="4"/>
<path d="M505.937 250.189C505.937 250.189 507.139 241.398 505.937 241.131C504.735 240.864 462.954 241.131 462.954 241.131C462.954 226.136 462.825 210.087 464.212 195.189C464.888 187.921 464.278 169.359 462.954 169.359C452.877 168.767 439.733 167.593 429.724 169.359C426.797 182.689 428.595 207.631 429.483 220.516C430.225 231.265 429.724 252.689 429.724 252.689C429.724 252.689 429.483 261.095 429.483 264.703C429.483 269.294 455.133 265.041 460.297 265.452C460.297 265.452 484.064 265.012 494.419 265.452C495.343 265.492 505.868 265.868 505.937 264.703C506.261 259.188 504.915 255.865 505.937 250.189Z" stroke="#C8B0E8" stroke-width="4"/>
<path d="M523.877 264.717C537.076 264.717 550.629 265.902 563.798 264.717C571.932 263.984 589.798 265.733 599.298 264.717V240.689C597.385 236.209 560.298 238.189 555.716 238.189C555.716 238.189 555.087 214.083 555.716 206.189C556.137 200.901 558.452 171.615 553.87 167.687C553.87 167.687 530.313 166.822 523.877 167.674C519.298 168.28 523.877 208.689 523.877 220.597C523.876 232.504 523.877 264.717 523.877 264.717Z" stroke="#C8B0E8" stroke-width="4"/>
<path d="M652.947 193.19C652.947 192.205 670.298 193.19 670.298 193.19C674.298 193.19 685.683 192.489 694.798 193.19C697.798 193.421 698.052 175.14 697.298 169.19C695.448 168.169 660.722 167.854 650.967 168.169C639.813 168.529 630.286 165.969 619.289 168.169C619.289 174.043 618.663 184.113 619.288 190.363C620.292 200.404 620.132 222.726 619.287 235.689C618.672 245.134 619.288 256.189 619.342 262.161C623.799 264.222 644.798 264.222 657.298 264.222C669.798 264.222 689.776 265.482 695.448 264.222C699.063 263.418 699.181 246.075 699.181 241.84C695.448 238.689 657.298 241.84 652.01 240.77C650.938 239.832 651.801 228.127 652.298 227.189C653.21 225.466 687.295 227.189 687.381 225.466C687.678 219.53 687.381 208.189 687.381 208.189H652.947C652.743 204.523 652.947 196.922 652.947 193.19Z" stroke="#C8B0E8" stroke-width="4"/>
<path d="M753.297 169.69C741.619 168.848 726.903 170.116 715.313 172.009C715.313 196.226 712.298 199.01 712.298 223.189C712.298 229.19 713.693 257.466 714.604 263.392C714.844 264.949 745.798 265.689 747.797 265.689C779.742 265.689 792.69 263.189 800.69 235.189C803.431 222.485 804.887 207.78 800.69 195.189C794.418 176.372 770.005 170.894 753.297 169.69Z" stroke="#C8B0E8" stroke-width="4"/>
<path d="M747.797 196.689C745.797 204.69 747.797 226.19 747.797 236.189C751.069 240.799 774.297 234.689 774.297 215.689C774.297 203.19 757.297 193.689 747.797 196.689Z" stroke="#C8B0E8" stroke-width="4"/>
<path d="M887.298 228.189C885.244 236.174 877.297 247.189 866.797 241.689C856.797 237.689 854.604 221.212 855.798 212.689C857.002 204.083 861.979 194.137 871.619 191.995C892.298 190.189 889.684 218.908 887.298 228.189Z" stroke="#C8B0E8" stroke-width="4"/>
<path d="M828.798 243.19C824.485 233.69 821.257 206.138 830.798 190.791C838.013 179.184 848.875 168.812 862.298 166.19C883.798 161.989 908.896 170.449 915.798 190.791C926.45 222.187 921.312 253.249 890.798 265.189C863.716 275.787 838.557 264.69 828.798 243.19Z" stroke="#C8B0E8" stroke-width="4"/>
</svg>
