<svg width="929" height="231" viewBox="0 0 929 231" fill="none" xmlns="http://www.w3.org/2000/svg">
<path d="M37.2986 103.134H6.28929C3.29784 92.1892 3.72564 69.6675 3.29784 57.6892C2.80004 43.7508 2.79871 20.6891 4.2979 7.68911C22.2758 6.72637 39.7986 6.18945 56.2979 6.18945C72.7971 6.18945 82.7692 11.3948 91.0339 19.6595C98.2478 26.8734 99.3162 37.3565 98.4076 46.8964C97.5098 56.3237 89.3549 61.9646 82.1431 66.442C82.1431 66.442 90.1244 80.0053 91.3867 82.53C92.2138 84.1842 103.299 102.689 102.799 103.189C102.299 103.689 82.8042 104.042 72.9701 103.769C72.9701 103.769 54.4424 79.2709 53.7986 72.189H39.7986C39.7986 77.189 39.2986 101.189 37.2986 103.134Z" stroke="#C8B0E8" stroke-width="6"/>
<path d="M52.7979 52.1895C47.8876 52.1895 43.4821 51.9969 38.677 51.0593C38.677 43.9074 38.042 39.4731 38.042 32.3252C38.042 32.3252 56.4877 32.4074 58.8577 33.1367C64.3232 34.8183 66.2979 42.6895 63.2979 47.1895C61.7979 49.6895 57.6245 52.1895 52.7979 52.1895Z" stroke="#C8B0E8" stroke-width="6"/>
<path d="M175.298 53.741C175.298 60.2925 173.434 66.6895 172.798 69.1895C170 80.1895 151.798 77.6895 148.798 71.6895C146.256 66.6064 146.001 59.0828 146.001 53.741C146.001 46.0173 147.912 40.7802 152.951 34.901C156.903 30.2912 167.657 31.155 171.403 34.9011C175.722 39.2199 175.298 48.1674 175.298 53.741Z" stroke="#C8B0E8" stroke-width="6"/>
<path d="M206.967 49.5068C206.967 37.5037 204.025 21.5576 191.799 12.6893C179.572 3.82067 166.267 4.00361 155.299 4.68914C139.299 5.68915 123.909 16.5884 119.799 32.6891C115.403 49.9061 116.2 72.6891 126.799 87.1891C134.799 98.1337 149.299 103.134 166.289 103.134C178.299 103.134 190.524 98.7978 197.799 88.1891C204.792 77.9914 206.967 61.5181 206.967 49.5068Z" stroke="#C8B0E8" stroke-width="6"/>
<path d="M264.299 56.6894C264.269 56.1173 260.276 41.216 260.276 41.216C260.276 41.216 258.299 70.1894 258.299 85.1894C258.123 86.6859 259.677 104.722 257.172 106.309C248.568 106.309 235.942 105.645 227.254 105.074C221.299 100.453 224.749 63.1894 224.748 50.7066C224.748 35.6894 224.938 23.2411 227.253 8.19316C227.253 8.19316 244.298 6.4644 248.798 6.46464C258.994 6.46464 272.798 7.87564 276.823 7.87564C277.798 8.19316 287.799 69.1894 287.799 69.1894L295.647 40.6847L303.799 8.19316C305.11 6.18786 319.689 7.87564 319.689 7.87564L346.538 6.4644C350.207 5.28522 350.454 46.2965 350.454 46.2965C350.454 46.2965 349.386 68.8097 350.454 88.8805C350.683 89.8923 350.109 106.22 348.584 106.309C348.584 106.309 321.133 107.32 319.689 104.722C317.299 96.6895 318.737 83.848 318.737 75.1915C318.737 63.4386 315.799 41.216 315.799 41.216C310.996 54.9948 305.299 82.6894 305.299 82.6894C304.429 86.3272 301.808 105.899 298.097 105.074C292.833 103.904 275.769 106.309 274.799 103.689C273.403 99.9207 272.344 92.7402 271.425 88.8805C267.937 74.2326 264.299 56.6894 264.299 56.6894Z" stroke="#C8B0E8" stroke-width="6"/>
<path d="M370.811 91.7736C370.811 93.6698 372.398 105.039 372.398 105.039C383.185 105.039 394.217 104.404 405.421 104.404C409.163 104.404 406.798 62.6895 406.798 56.1895C406.798 48.4708 411.866 6.56852 409.831 5.40606C401.51 0.650822 377.636 4.20658 368.298 5.40601C368.298 13.4898 367.095 32.7984 370.811 44.6895C374.298 61.1895 370.811 74.4345 370.811 91.7736Z" stroke="#C8B0E8" stroke-width="6"/>
<path d="M453.368 100.276C453.368 103.379 426.06 101.864 426.06 101.864C424.297 96.1895 426.061 50.0455 426.061 40.6895C426.061 35.0423 421.89 5.8496 426.06 5.68923C433.886 4.13833 445.298 5.68946 453.862 7.2404C460.03 7.2404 486.391 63.1252 486.391 63.1252C486.391 63.1252 486.546 42.6319 486.391 40.6895C486.391 35.6895 487.798 7.55793 487.798 7.55793C490.287 3.20153 516.798 6.63398 518.461 7.55793C520.124 8.48187 521.146 50.6895 518.461 65.1895C516.757 74.3905 517.983 91.1403 520.013 100.276C520.113 100.722 485.791 101.864 482.58 99.6409C478.986 91.5535 474.472 83.5172 470.297 75.6895C465.716 67.0997 456.798 49.1895 456.798 49.1895C456.798 54.5167 453.368 85.4655 453.368 100.276Z" stroke="#C8B0E8" stroke-width="6"/>
<path d="M592.798 81.898C590.59 81.898 572.509 81.3642 572.442 81.898C572.249 83.4386 567.798 102.689 567.798 102.689C556.671 103.117 533.298 102.689 533.298 102.689C532.028 96.3485 540.952 77.071 542.298 71.6893C543.933 65.1485 549.579 46.1005 551.798 39.6893C559.007 18.864 563.201 11.1891 564.045 9.50165C564.889 7.81419 601.796 6.80267 602.431 8.23154C609.173 23.4023 613.706 39.014 618.34 54.9795L618.484 55.4726C623.073 71.2814 625.798 83.6895 632.772 99.0445C635.81 105.731 605.298 103.689 599.798 102.689C599.798 102.689 595.005 81.898 592.798 81.898Z" stroke="#C8B0E8" stroke-width="6"/>
<path d="M592.298 64.1895H572.798C572.798 52.2133 582.249 29.1851 582.249 29.1851C583.798 29.1851 595.454 62.8485 592.298 64.1895Z" stroke="#C8B0E8" stroke-width="6"/>
<path d="M92.7423 160.689C92.8323 165.642 90.7978 172.553 87.7978 177.189C82.2978 185.689 78.7978 188.189 78.7978 188.189C80.2978 190.689 87.7978 201.718 92.7423 208.559C95.1075 211.831 103.298 223.74 100.692 223.74C93.7978 225.189 69.7979 225.738 68.2979 223.904C66.7979 222.071 59.2979 205.189 57.7979 200.189C57.7979 200.189 55.5897 193.381 53.7979 192.189C50.7979 192.189 44.7979 190.689 40.2346 192.189C40.2346 199.792 40.4015 205.013 40.2346 212.689C40.1697 215.673 40.2346 223.74 40.2346 223.74C33.7979 225.689 19.7979 223.74 10.7979 223.904C8.00402 223.74 8.30588 200.365 8.45472 197.24C8.71528 191.768 6.60233 131.82 9.00938 131.132C21.0318 127.697 36.7978 125.189 47.7979 125.189C58.7979 125.189 74.6234 127.243 83.2979 135.689C91.9723 144.136 92.5938 152.525 92.7423 160.689Z" stroke="#C8B0E8" stroke-width="6"/>
<path d="M62.2979 165.69C60.699 170.886 48.747 173.384 40.2353 169.939C39.1465 153.19 39.1465 150.711 39.1465 150.711C42.2979 150.711 53.2979 147.71 59.2979 150.711C65.2979 153.711 63.8967 160.494 62.2979 165.69Z" stroke="#C8B0E8" stroke-width="6"/>
<path d="M147.633 128.524C136.841 128.524 127.798 128.154 115.299 128.893C115.299 137.518 115.669 146.161 115.669 154.798C115.669 168.254 115.074 184.472 116.798 197.689C117.763 205.086 115.669 212.258 115.669 219.57C117.435 221.706 147.633 219.57 162.298 221.689C170.811 222.92 194.06 221.955 194.06 219.57V199.52H176.298H148.414C148.414 199.52 146.201 190.109 149.298 184.69H184.528V165.871L162.298 166.69C162.298 166.69 150.971 166.58 148.414 165.85V153.298C162.298 150.69 194.06 153.298 194.06 153.298C194.06 153.298 195.724 133.69 195.724 128.893C192.417 128.154 167.604 128.893 163.944 128.893C158.484 128.893 153.096 128.524 147.633 128.524Z" stroke="#C8B0E8" stroke-width="6"/>
<path d="M299.815 143.684C291.798 119.189 232.204 127.481 212.798 128.19C212.798 140.601 214.582 151.689 215.055 165.46C215.886 189.689 215.055 219.118 215.055 219.118C217.798 219.118 273.298 227.689 291.798 219.118C304.298 211.189 306.057 201.189 303.798 190.689C300.781 176.669 279.298 176.189 279.298 176.189C279.298 176.189 305.298 176.189 299.815 143.684Z" stroke="#C8B0E8" stroke-width="6"/>
<path d="M240.651 166.24C238.298 159.689 240.652 149.97 240.652 149.97C246.798 147.689 257.298 147.737 263.002 149.97C268.707 152.203 269.798 161.189 265.298 166.24C260.884 171.194 246.798 166.24 240.651 166.24Z" stroke="#C8B0E8" stroke-width="6"/>
<path d="M246.297 205.689C242.798 205.689 242.797 189.582 242.798 185.189C245.541 182.689 270.281 182.053 268.298 195.189C267.152 202.78 253.298 205.206 246.297 205.689Z" stroke="#C8B0E8" stroke-width="6"/>
<path d="M383.298 177.19C383.298 166.69 385.798 154.114 373.748 149.219C362.918 144.819 353.298 156.189 353.298 166.69C353.298 177.19 351.298 196.69 365.855 200.202C383.298 200.202 381.789 184.147 383.298 177.19Z" stroke="#C8B0E8" stroke-width="6"/>
<path d="M324.298 148.189C317.454 161.878 320.769 180.715 324.298 194.189C327.184 205.207 333.545 215.313 341.798 220.189C355.562 228.323 381.414 226.599 394.298 217.713C402.633 211.965 406.512 206.508 409.199 196.549C412.129 185.693 411.607 171.689 411.607 160.991C411.607 143.689 392.958 125.915 370.898 125.915C351.485 125.915 334.766 130.307 324.298 148.189Z" stroke="#C8B0E8" stroke-width="6"/>
<path d="M510.938 208.189C510.938 208.189 512.14 199.398 510.938 199.131C509.736 198.864 467.955 199.131 467.955 199.131C467.955 184.136 467.826 168.087 469.213 153.189C469.889 145.921 469.279 127.359 467.955 127.359C457.878 126.767 444.734 125.593 434.725 127.359C431.798 140.689 433.596 165.631 434.484 178.516C435.226 189.265 434.725 210.689 434.725 210.689C434.725 210.689 434.484 219.095 434.484 222.703C434.484 227.294 460.134 223.041 465.298 223.452C465.298 223.452 489.065 223.012 499.42 223.452C500.344 223.492 510.869 223.868 510.938 222.703C511.262 217.188 509.916 213.865 510.938 208.189Z" stroke="#C8B0E8" stroke-width="6"/>
<path d="M528.877 222.717C542.076 222.717 555.629 223.902 568.798 222.717C576.932 221.984 594.798 223.733 604.298 222.717V198.689C602.385 194.209 565.298 196.189 560.716 196.189C560.716 196.189 560.087 172.083 560.716 164.189C561.137 158.901 563.452 129.615 558.87 125.687C558.87 125.687 535.313 124.822 528.877 125.674C524.298 126.28 528.877 166.689 528.877 178.597C528.876 190.504 528.877 222.717 528.877 222.717Z" stroke="#C8B0E8" stroke-width="6"/>
<path d="M657.947 151.19C657.947 150.205 675.298 151.19 675.298 151.19C679.298 151.19 690.683 150.489 699.798 151.19C702.798 151.421 703.052 133.14 702.298 127.19C700.448 126.169 665.722 125.854 655.967 126.169C644.813 126.529 635.286 123.969 624.289 126.169C624.289 132.043 623.663 142.113 624.288 148.363C625.292 158.404 625.132 180.726 624.287 193.689C623.672 203.134 624.288 214.189 624.342 220.161C628.799 222.222 649.798 222.222 662.298 222.222C674.798 222.222 694.776 223.482 700.448 222.222C704.063 221.418 704.181 204.075 704.181 199.84C700.448 196.689 662.298 199.84 657.01 198.77C655.938 197.832 656.801 186.127 657.298 185.189C658.21 183.466 692.295 185.189 692.381 183.466C692.678 177.53 692.381 166.189 692.381 166.189H657.947C657.743 162.523 657.947 154.922 657.947 151.19Z" stroke="#C8B0E8" stroke-width="6"/>
<path d="M758.297 127.69C746.619 126.848 731.903 128.116 720.313 130.009C720.313 154.226 717.298 157.01 717.298 181.189C717.298 187.19 718.693 215.466 719.604 221.392C719.844 222.949 750.798 223.689 752.797 223.689C784.742 223.689 797.69 221.189 805.69 193.189C808.431 180.485 809.887 165.78 805.69 153.189C799.418 134.372 775.005 128.894 758.297 127.69Z" stroke="#C8B0E8" stroke-width="6"/>
<path d="M752.798 154.689C750.798 162.69 752.798 184.19 752.798 194.189C756.07 198.799 779.298 192.689 779.298 173.689C779.298 161.19 762.298 151.689 752.798 154.689Z" stroke="#C8B0E8" stroke-width="6"/>
<path d="M892.299 186.189C890.245 194.174 882.298 205.189 871.798 199.689C861.798 195.689 859.605 179.212 860.798 170.689C862.003 162.083 866.98 152.137 876.62 149.995C897.299 148.189 894.685 176.908 892.299 186.189Z" stroke="#C8B0E8" stroke-width="6"/>
<path d="M833.798 201.19C829.485 191.69 826.257 164.138 835.798 148.791C843.013 137.184 853.875 126.812 867.298 124.19C888.798 119.989 913.896 128.449 920.798 148.791C931.45 180.187 926.312 211.249 895.798 223.189C868.716 233.787 843.557 222.69 833.798 201.19Z" stroke="#C8B0E8" stroke-width="6"/>
</svg>
