<svg width="104" height="44" viewBox="0 0 104 44" fill="none" xmlns="http://www.w3.org/2000/svg">
<path d="M29.6179 41.6175C22.7994 41.9305 15.3051 40.0709 8.4529 39.8577C-1.59173 39.5453 3.01084 32.4151 3.3112 27.4745C3.65326 21.8477 2.80205 14.3503 4.53564 9.04147C7.51477 -0.08164 26.2414 5.07178 36.0975 5.07178L53.3842 5.07181C60.2662 5.07181 66.1567 1.57425 72.825 2.86184C85.4841 5.30623 99.7197 -3.66661 101.503 8.81638C102.621 16.6432 101.503 22.554 101.503 30.0349C101.503 42.8008 98.9262 42.6343 83.0567 41.5357C72.1582 40.7812 60.2567 36.7205 49.5099 37.2041C43.0731 37.4937 36.0652 41.3216 29.6179 41.6175Z" fill="#252525" stroke="#252525" stroke-width="3"/>
</svg>
