<svg width="167" height="55" viewBox="0 0 267 85" fill="none" xmlns="http://www.w3.org/2000/svg">
<path d="M59.185 74.6863C46.1744 75.2974 29.9755 77.5314 16.9006 77.1151C-2.26577 76.5049 2.3102 62.8344 2.88332 53.1863C3.53603 42.1984 13.0744 32.6863 9.42599 16.9369C2.88151 -11.3137 50.8432 9.18491 69.6498 9.18491L102.635 9.18497L102.838 9.18497C115.937 9.18491 132.404 9.18482 145.062 11.6863C169.217 16.4597 191.049 -7.87944 194.452 16.4974C196.585 31.7817 192.266 36.6863 185.441 50.1863C185.441 75.1155 189.535 82.5371 159.254 80.3917C138.458 78.9184 130.876 82.2419 110.37 83.1863C98.088 83.7519 71.4872 74.1084 59.185 74.6863Z" fill="#252525" stroke="#252525" stroke-width="3"/>
<path d="M50.592 47.65H57.27L56.946 49H48.846L51.6 37.12H53.04L50.592 47.65ZM63.5869 37.12L60.8329 49H59.3929L62.1469 37.12H63.5869ZM64.6136 49L67.3676 37.12H69.0956L72.0476 45.04L72.8216 47.416H72.8396L73.2176 45.508L75.1616 37.12H76.5296L73.7756 49H72.0656L69.0596 41.044L68.3216 38.704H68.3036L67.9256 40.612L65.9816 49H64.6136ZM77.5511 49L80.3051 37.12H81.7451L80.3411 43.168L87.3071 37.12H89.3231L83.6531 42.07L86.6231 49H85.0391L82.5371 43.042L79.8371 45.364L78.9911 49H77.5511ZM105.3 37.12L104.976 38.47H100.962L98.5322 49H97.0922L99.5222 38.47H95.4362L95.7602 37.12H105.3ZM110.202 49.18C109.314 49.18 108.492 48.982 107.736 48.586C106.992 48.178 106.392 47.584 105.936 46.804C105.492 46.024 105.27 45.076 105.27 43.96C105.27 43.036 105.402 42.154 105.666 41.314C105.93 40.474 106.314 39.73 106.818 39.082C107.334 38.422 107.97 37.9 108.726 37.516C109.494 37.132 110.37 36.94 111.354 36.94C112.242 36.94 113.052 37.144 113.784 37.552C114.528 37.96 115.122 38.554 115.566 39.334C116.01 40.102 116.232 41.044 116.232 42.16C116.232 43.072 116.1 43.948 115.836 44.788C115.584 45.628 115.2 46.378 114.684 47.038C114.18 47.698 113.55 48.22 112.794 48.604C112.05 48.988 111.186 49.18 110.202 49.18ZM110.364 47.812C111.084 47.812 111.714 47.656 112.254 47.344C112.794 47.032 113.244 46.612 113.604 46.084C113.976 45.544 114.252 44.944 114.432 44.284C114.624 43.624 114.72 42.946 114.72 42.25C114.72 41.422 114.57 40.714 114.27 40.126C113.97 39.538 113.556 39.088 113.028 38.776C112.5 38.464 111.882 38.308 111.174 38.308C110.454 38.308 109.818 38.464 109.266 38.776C108.726 39.088 108.27 39.508 107.898 40.036C107.526 40.564 107.244 41.158 107.052 41.818C106.872 42.478 106.782 43.162 106.782 43.87C106.782 44.698 106.932 45.406 107.232 45.994C107.532 46.582 107.946 47.032 108.474 47.344C109.014 47.656 109.644 47.812 110.364 47.812ZM129.68 49.18C128.756 49.18 127.91 48.988 127.142 48.604C126.386 48.22 125.78 47.65 125.324 46.894C124.868 46.138 124.64 45.202 124.64 44.086C124.64 43.198 124.766 42.334 125.018 41.494C125.282 40.642 125.672 39.874 126.188 39.19C126.704 38.506 127.34 37.96 128.096 37.552C128.864 37.144 129.746 36.94 130.742 36.94C131.498 36.94 132.17 37.06 132.758 37.3C133.346 37.54 133.844 37.906 134.252 38.398C134.66 38.89 134.966 39.514 135.17 40.27L133.658 40.774C133.454 39.886 133.094 39.25 132.578 38.866C132.074 38.482 131.414 38.29 130.598 38.29C129.878 38.29 129.242 38.452 128.69 38.776C128.138 39.1 127.676 39.532 127.304 40.072C126.932 40.6 126.65 41.194 126.458 41.854C126.266 42.514 126.17 43.186 126.17 43.87C126.17 44.698 126.326 45.406 126.638 45.994C126.962 46.582 127.394 47.038 127.934 47.362C128.486 47.674 129.098 47.83 129.77 47.83C130.562 47.83 131.186 47.668 131.642 47.344C132.098 47.008 132.482 46.564 132.794 46.012L134.18 46.678C133.688 47.434 133.088 48.04 132.38 48.496C131.672 48.952 130.772 49.18 129.68 49.18ZM141.562 49.18C140.674 49.18 139.852 48.982 139.096 48.586C138.352 48.178 137.752 47.584 137.296 46.804C136.852 46.024 136.63 45.076 136.63 43.96C136.63 43.036 136.762 42.154 137.026 41.314C137.29 40.474 137.674 39.73 138.178 39.082C138.694 38.422 139.33 37.9 140.086 37.516C140.854 37.132 141.73 36.94 142.714 36.94C143.602 36.94 144.412 37.144 145.144 37.552C145.888 37.96 146.482 38.554 146.926 39.334C147.37 40.102 147.592 41.044 147.592 42.16C147.592 43.072 147.46 43.948 147.196 44.788C146.944 45.628 146.56 46.378 146.044 47.038C145.54 47.698 144.91 48.22 144.154 48.604C143.41 48.988 142.546 49.18 141.562 49.18ZM141.724 47.812C142.444 47.812 143.074 47.656 143.614 47.344C144.154 47.032 144.604 46.612 144.964 46.084C145.336 45.544 145.612 44.944 145.792 44.284C145.984 43.624 146.08 42.946 146.08 42.25C146.08 41.422 145.93 40.714 145.63 40.126C145.33 39.538 144.916 39.088 144.388 38.776C143.86 38.464 143.242 38.308 142.534 38.308C141.814 38.308 141.178 38.464 140.626 38.776C140.086 39.088 139.63 39.508 139.258 40.036C138.886 40.564 138.604 41.158 138.412 41.818C138.232 42.478 138.142 43.162 138.142 43.87C138.142 44.698 138.292 45.406 138.592 45.994C138.892 46.582 139.306 47.032 139.834 47.344C140.374 47.656 141.004 47.812 141.724 47.812ZM149.305 49L152.059 37.12H155.497C156.517 37.12 157.387 37.33 158.107 37.75C158.827 38.17 159.379 38.746 159.763 39.478C160.159 40.21 160.357 41.044 160.357 41.98C160.357 42.976 160.195 43.9 159.871 44.752C159.559 45.604 159.109 46.348 158.521 46.984C157.933 47.62 157.225 48.118 156.397 48.478C155.581 48.826 154.675 49 153.679 49H149.305ZM151.051 47.65H153.895C154.651 47.65 155.329 47.506 155.929 47.218C156.541 46.918 157.057 46.516 157.477 46.012C157.909 45.496 158.239 44.914 158.467 44.266C158.695 43.606 158.809 42.916 158.809 42.196C158.809 41.488 158.683 40.858 158.431 40.306C158.179 39.742 157.795 39.298 157.279 38.974C156.763 38.638 156.109 38.47 155.317 38.47H153.193L151.051 47.65ZM162.014 49L164.768 37.12H172.922L172.598 38.47H165.884L165.002 42.304H170.258L169.952 43.654H164.696L163.778 47.65H170.78L170.456 49H162.014Z" fill="#BAA2D9"/>
<path d="M33.6462 43.2981C31.4559 43.2981 30.0238 42.8642 28.3398 41.4609C23.6108 37.5194 27.3492 30.8644 28.3384 29.4999C32.063 24.3626 35.1094 21.0002 40.6094 21C42.6101 20.9999 47.2429 22.0292 47.6094 25.5C48.0119 29.3119 46.5 31.4406 42.6101 33.5C39.3938 35.2027 37.2249 43.2981 33.6462 43.2981Z" stroke="#BAA2D9" stroke-width="3" stroke-linecap="round"/>
<path d="M32.9875 35.5702C35.1717 35.4068 36.6322 35.7328 38.4161 37.0066C43.426 40.5844 40.1943 47.4997 39.3096 48.9341C35.9785 54.3349 33.1914 57.9151 27.7067 58.3255C25.7116 58.4748 21.0149 57.7939 20.3906 54.3601C19.7049 50.5888 21.0538 48.3533 24.7793 46.0096C27.8596 44.0717 29.4187 35.8371 32.9875 35.5702Z" stroke="#BAA2D9" stroke-width="3" stroke-linecap="round"/>
</svg>
