<svg width="29" height="34" viewBox="0 0 29 40" fill="none" xmlns="http://www.w3.org/2000/svg">
<path d="M14.0665 2C14.4993 9.75659 14.0664 15.7566 14.0664 23.2566C13.9992 32.2566 14.4994 39.2566 5.49033 37.5315C-6.34193e-05 35.7566 0.499435 28.2566 5.49033 27.0404C7.99936 26.429 10.9994 26.7566 12.9994 27.0404" stroke="#252525" stroke-width="2.5" stroke-linecap="round"/>
<path d="M12.5 26.5C9 26.5 1.49999 28.0167 1.5 20.5C1.50001 13.5 13 15.5001 13 15.5001" stroke="#252525" stroke-width="2.5" stroke-linecap="round"/>
<path d="M13 14.5C11 14.5 1.5 17 1.5 7.99999C1.5 4.14848e-05 13.0987 2.00007 14.5 2.00005C17 2.00002 27.5 0.00012207 27 9.00012C26.6188 15.8621 18.5 14 15 14.5" stroke="#252525" stroke-width="2.5" stroke-linecap="round"/>
<path d="M16.2245 16.5484C14.2658 18.4387 13.7755 26 21.6124 26C25.5306 26 27 23.6371 27 20.329C27 14.6579 19.1626 13.7128 16.2245 16.5484Z" stroke="#252525" stroke-width="2.5" stroke-linecap="round"/>
</svg>
