<svg width="415" height="144" viewBox="0 0 415 144" fill="none" xmlns="http://www.w3.org/2000/svg">
<path d="M0.554395 39.5712C-0.692728 29.2568 0.553904 15.5147 0.554157 5.21778C0.554365 -3.23844 81.3575 5.21778 97.6485 5.21778C122.628 5.21778 150.385 6.05385 173.13 5.21778C227.972 3.20189 269.247 0 328.981 0H328.994C348.556 0.000218062 407.681 0.000876427 407.681 5.218C410.436 15.9687 408.085 25.823 407.681 35.1082C407.415 41.215 293.746 38.3195 274.677 39.5712C255.452 40.8331 158.19 42.9158 138.919 42.9158H43.3452C32.3302 42.9158 1.4415 46.908 0.554395 39.5712Z" fill="#D2FFFF"/>
</svg>
