<svg id="menu" width="71" height="42" viewBox="0 0 71 42" fill="none" xmlns="http://www.w3.org/2000/svg">
<path d="M15.602 28L17.744 18.76H18.738L19.844 25.816L19.984 27.16L20.712 25.844L25.094 18.76H26.186L24.044 28H23.386L24.982 21.098L25.416 19.432H25.402L20.124 28H19.494L18.192 19.432L17.87 21.098L16.274 28H15.602ZM26.8813 28L29.0233 18.76H35.1973L35.0293 19.404H29.5693L28.7433 22.974H33.0973L32.9433 23.632H28.6033L27.7493 27.356H33.4473L33.2933 28H26.8813ZM35.2758 28L37.4178 18.76H38.2718L41.3518 25.998L41.7858 27.244H41.7998L42.0238 26.082L43.7318 18.76H44.3898L42.2478 28H41.4078L38.3138 20.748L37.8938 19.516H37.8798L37.6418 20.678L35.9478 28H35.2758ZM48.9282 28.14C48.1069 28.14 47.4302 27.9767 46.8982 27.65C46.3662 27.3233 46.0022 26.8567 45.8062 26.25C45.6102 25.634 45.6102 24.906 45.8062 24.066L47.0522 18.76H47.7522L46.4922 24.234C46.3242 24.934 46.3242 25.5267 46.4922 26.012C46.6602 26.4973 46.9542 26.866 47.3742 27.118C47.8036 27.37 48.3309 27.496 48.9562 27.496C49.7962 27.496 50.4636 27.2347 50.9582 26.712C51.4529 26.18 51.8076 25.4473 52.0222 24.514L53.3522 18.76H54.0522L52.6802 24.71C52.4376 25.7647 52.0036 26.6 51.3782 27.216C50.7622 27.832 49.9456 28.14 48.9282 28.14Z" />
<path d="M23.7716 2.45319C20.8121 3.74199 18.4711 6.33518 15.9651 8.29299C11.9378 11.4393 7.8039 9.74467 3.86406 11.7146C-2.70307 14.9981 6.41493 20.2466 5.34909 24.6284C4.60924 27.67 3.90467 40.3416 9.45301 40.3416C11.1376 40.3416 19.888 38.496 21.5 38C27.4096 36.1817 34.795 40.3416 41.5318 40.3416C44.0297 40.3416 46.5047 40.3738 48.9971 40.5122C53.3157 40.7521 58.0547 41.1804 61.9209 38.7061C65.6031 36.3495 63.5607 31.4877 64.7706 28.1001C65.9256 24.8661 72.4676 17.6863 67.9413 14.3335C57.3577 6.49375 60.2023 5.30285 44.2209 5.30285C39.2369 5.30285 35.5135 1.66065 30.8556 1.33941C28.4649 1.17454 25.9808 1.49108 23.7716 2.45319Z" stroke="#252525" stroke-width="2" stroke-linecap="round"/>
</svg>
