<svg width="37" height="42" viewBox="0 0 37 42" fill="none" xmlns="http://www.w3.org/2000/svg">
<path d="M18.4687 19.1191L17.3025 22.872C16.6807 25.2017 16.7336 25.9366 17.049 26.4786C17.1268 26.6119 17.3397 27.0479 17.6372 28.2128C18.0691 29.8988 18.4495 32.4445 18.4588 32.5663C18.3963 34.1225 18.4301 35.7712 18.5541 37.3498L10.5 37L3.16405 37.3498C0.5 37.3498 0 35.9047 0 34.1386L0.5 19.1191L0 5.0761C0 3.30996 1 1.50002 3.16405 1.86457C5.3281 2.22913 13.5 1.5 20.1698 1.86457C22.6247 1.99876 26.8464 1.86457 26.8464 1.86457C23.2193 5.76967 19.6254 13.1796 18.4687 19.1191ZM35.1861 0.913501C39.5 3.50002 33.5 11.5 31.2609 20.1484C28.3847 21.0866 25.0322 23.1587 25.0322 23.1587C25.0322 23.1587 25.311 23.0084 26.346 22.5678C27.0476 22.2685 29.1424 21.763 30.418 21.4678C28.2884 24.7265 26.466 27.0075 26.466 27.0075C26.466 27.0075 22.7505 28.5399 21.6014 32.1049C22.2674 28.3022 23.3725 24.3333 24.9321 20.1037C26.3248 16.3269 28.5624 8.65092 32 5.50002C28.2284 8.55101 26.1905 12.3336 23.2202 20.296C21.4622 25.5706 20.8427 30.7138 20.6878 34.9103C20.5854 37.6556 20.8192 40.0363 21.3949 41.8528L21.1288 42C20.564 40.5126 20.0458 37.8987 20.1698 32.5422C20.1512 32.3033 20.1401 32.148 20.1401 32.148C20.1401 32.148 19.7973 29.8045 19.3041 27.8795C19.0857 27.025 18.8371 26.2523 18.5761 25.8045C18.4417 25.5734 18.5907 24.6242 18.966 23.2183C19.6017 24.3415 20.2874 25.5574 20.5508 26.5523C20.5508 26.5523 20.0429 23.9002 19.2095 22.3525C19.3922 21.7269 19.6104 21.0354 19.8573 20.296C20.472 21.387 21.0989 22.4251 21.3489 23.4649C21.0754 22.1366 20.7052 20.8136 20.1284 19.5022C21.1767 13.9654 24.551 6.71549 28.1863 2.80145C30.1267 0.700056 32 -0.5 35.1861 0.913501Z" fill="#252525"/>
</svg>
