<svg width="37" height="37" viewBox="0 0 37 37" fill="none" xmlns="http://www.w3.org/2000/svg">
<path d="M12.5001 19.5C12.4372 20.566 16 19 16.5 20C16.4999 26 16 29.5 16.5001 31.5C17.5189 32 17.6425 31.7994 19.0001 31.5C19.9222 31.2966 19.144 20.864 19.5001 20.0001H22.0001C21.9835 18.4723 22.4692 17.0001 22.0001 17.0001C21.1365 16.9708 12.9692 17.0001 12.5001 17.0001C12.3828 17.0001 12.5416 18.7977 12.5001 19.5Z" fill="#252525"/>
<path d="M30.2878 19.8753C29.7907 20.1684 29.3337 21.0698 29.099 20.8356C28.273 20.0116 27.4245 18.9403 26.0256 19.5996C25.3576 19.7847 25.1151 20.8309 25.3821 21.6597C25.5968 22.3261 26.8639 22.6501 27.4471 22.8958C28.4951 23.3372 30.5253 24.4442 31.1645 25.3679C32.0902 26.7053 32.3796 28.7637 31.3434 30.142C29.8252 32.1616 27.4471 32.3722 24.9692 31.5482C24.1434 31.2735 21.5142 29.7801 22.0787 29.0761C22.2576 28.853 23.3168 27.84 23.7302 27.84C24.3445 27.84 25.3819 29.9001 27.4475 29.9001C28.6865 29.9001 29.0995 29.4881 29.5124 28.252C29.9254 27.016 28.1578 26.1391 27.4475 25.7799C26.1048 25.101 25.2836 25.1193 24.1432 24.1318C22.9063 23.0608 22.2721 21.51 22.7926 19.8753C23.3196 18.2199 23.9127 17.5395 25.3821 17.1275C25.9776 16.9055 27.9608 17.0187 28.686 17.1275C29.8953 17.309 30.2423 18.378 31.0925 19.2078C31.4092 19.5168 30.5393 19.7271 30.2878 19.8753Z" fill="#252525"/>
<path d="M29.4236 2.37971C19.4608 1.52537 12.6186 2.37971 3.18087 2.37971C0.826974 1.90408 2.71121 11.0749 2.75857 12.3885C2.91305 16.674 2.63759 19.9882 2.75922 24.3441C2.8736 28.44 1.06583 35.0187 4.02866 34.5917C8.46445 34.5917 13.626 35.3548 17.9966 34.5917C23.4288 33.6433 29.8469 35.8727 34.0796 34.5917C36.1959 31.6028 33.9874 19.8656 34.0796 18.3663C34.9261 -1.27497 35.1013 2.86659 29.4236 2.37971Z" stroke="#252525" stroke-width="3" stroke-linecap="round"/>
</svg>
